<?xml version="1.0" encoding="UTF-8" standalone="no"?>
<svg
   xmlns:dc="http://purl.org/dc/elements/1.1/"
   xmlns:cc="http://web.resource.org/cc/"
   xmlns:rdf="http://www.w3.org/1999/02/22-rdf-syntax-ns#"
   xmlns:svg="http://www.w3.org/2000/svg"
   xmlns="http://www.w3.org/2000/svg"
   xmlns:sodipodi="http://sodipodi.sourceforge.net/DTD/sodipodi-0.dtd"
   xmlns:inkscape="http://www.inkscape.org/namespaces/inkscape"
   width="350"
   height="300"
   id="svg6410"
   sodipodi:version="0.32"
   inkscape:version="0.45.1"
   inkscape:output_extension="org.inkscape.output.svg.inkscape"
   sodipodi:docbase="D:\newscratch"
   sodipodi:docname="frequency_vs_name.svg"
   version="1.0">
  <metadata
     id="metadata6561">
    <rdf:RDF>
      <cc:Work
         rdf:about="">
        <dc:format>image/svg+xml</dc:format>
        <dc:type
           rdf:resource="http://purl.org/dc/dcmitype/StillImage" />
        <cc:license
           rdf:resource="http://web.resource.org/cc/PublicDomain" />
      </cc:Work>
      <cc:License
         rdf:about="http://web.resource.org/cc/PublicDomain">
        <cc:permits
           rdf:resource="http://web.resource.org/cc/Reproduction" />
        <cc:permits
           rdf:resource="http://web.resource.org/cc/Distribution" />
        <cc:permits
           rdf:resource="http://web.resource.org/cc/DerivativeWorks" />
      </cc:License>
    </rdf:RDF>
  </metadata>
  <defs
     id="defs6559" />
  <sodipodi:namedview
     inkscape:window-height="984"
     inkscape:window-width="1400"
     inkscape:pageshadow="2"
     inkscape:pageopacity="0.0"
     guidetolerance="10.0"
     gridtolerance="10.0"
     objecttolerance="10.0"
     borderopacity="1.0"
     bordercolor="#666666"
     pagecolor="#ffffff"
     id="base"
     inkscape:zoom="3.2370665"
     inkscape:cx="139.0162"
     inkscape:cy="143.06182"
     inkscape:window-x="0"
     inkscape:window-y="26"
     inkscape:current-layer="svg6410"
     height="300px"
     width="350px"
     showborder="false" />
  <path
     style="fill:#000000;fill-opacity:1;fill-rule:evenodd;stroke:none"
     d="M 44.063326,284.86855 L 19.740361,284.86855 L 44.063326,284.86855 z M 44.063326,278.98398 L 31.901842,278.98398 L 44.063326,278.98398 z M 44.063326,273.09938 L 25.740026,273.09938 L 44.063326,273.09938 z M 44.063326,267.50188 L 31.901842,267.50188 L 44.063326,267.50188 z M 44.063326,261.90434 L 25.740026,261.90434 L 44.063326,261.90434 z M 44.063326,256.45036 L 31.901842,256.45036 L 44.063326,256.45036 z "
     id="path6412" />
  <path
     style="fill:#000000;fill-opacity:1;fill-rule:evenodd;stroke:none"
     d="M 44.063326,251.13987 L 25.740026,251.13987 L 44.063326,251.13987 z M 44.063326,245.97292 L 31.901842,245.97292 L 44.063326,245.97292 z M 44.063326,240.9495 L 25.740026,240.9495 L 44.063326,240.9495 z M 44.063326,235.92607 L 31.901842,235.92607 L 44.063326,235.92607 z M 44.063326,231.04616 L 19.740361,231.04616 L 44.063326,231.04616 z M 44.063326,226.30981 L 31.901842,226.30981 L 44.063326,226.30981 z "
     id="path6414" />
  <path
     style="fill:#000000;fill-opacity:1;fill-rule:evenodd;stroke:none"
     d="M 44.063326,221.57344 L 25.740026,221.57344 L 44.063326,221.57344 z M 44.063326,216.98059 L 31.901842,216.98059 L 44.063326,216.98059 z M 44.063326,212.53126 L 25.740026,212.53126 L 44.063326,212.53126 z M 44.063326,208.08197 L 31.901842,208.08197 L 44.063326,208.08197 z M 44.063326,203.77618 L 25.740026,203.77618 L 44.063326,203.77618 z M 44.063326,199.47038 L 31.901842,199.47038 L 44.063326,199.47038 z "
     id="path6416" />
  <path
     style="fill:#000000;fill-opacity:1;fill-rule:evenodd;stroke:none"
     d="M 44.063326,195.30812 L 25.740026,195.30812 L 44.063326,195.30812 z M 44.063326,191.14586 L 31.901842,191.14586 L 44.063326,191.14586 z M 44.063326,187.12711 L 19.740361,187.12711 L 44.063326,187.12711 z M 44.063326,179.08965 L 31.901842,179.08965 L 44.063326,179.08965 z M 44.063326,171.48273 L 31.901842,171.48273 L 44.063326,171.48273 z M 44.063326,164.01938 L 31.901842,164.01938 L 44.063326,164.01938 z "
     id="path6418" />
  <path
     style="fill:#000000;fill-opacity:1;fill-rule:evenodd;stroke:none"
     d="M 44.063326,156.84305 L 31.901842,156.84305 L 44.063326,156.84305 z M 44.063326,149.81027 L 25.740026,149.81027 L 44.063326,149.81027 z M 44.063326,143.06453 L 31.901842,143.06453 L 44.063326,143.06453 z M 44.063326,136.46231 L 31.901842,136.46231 L 44.063326,136.46231 z M 44.063326,130.00363 L 31.901842,130.00363 L 44.063326,130.00363 z M 44.063326,123.68847 L 31.901842,123.68847 L 44.063326,123.68847 z "
     id="path6420" />
  <path
     style="fill:#000000;fill-opacity:1;fill-rule:evenodd;stroke:none"
     d="M 44.063326,117.66036 L 19.740361,117.66036 L 44.063326,117.66036 z M 44.063326,111.63225 L 31.901842,111.63225 L 44.063326,111.63225 z M 44.063326,105.8912 L 31.901842,105.8912 L 44.063326,105.8912 z M 44.063326,100.15015 L 31.901842,100.15015 L 44.063326,100.15015 z M 44.063326,94.696147 L 31.901842,94.696147 L 44.063326,94.696147 z M 44.063326,89.242146 L 25.740026,89.242146 L 44.063326,89.242146 z "
     id="path6422" />
  <path
     style="fill:#000000;fill-opacity:1;fill-rule:evenodd;stroke:none"
     d="M 44.063326,83.93167 L 31.901842,83.93167 L 44.063326,83.93167 z M 44.063326,78.764721 L 31.901842,78.764721 L 44.063326,78.764721 z M 44.063326,73.597773 L 31.901842,73.597773 L 44.063326,73.597773 z M 44.063326,68.717878 L 31.901842,68.717878 L 44.063326,68.717878 z M 44.063326,63.837981 L 19.740361,63.837981 L 44.063326,63.837981 z M 44.063326,58.958086 L 31.901842,58.958086 L 44.063326,58.958086 z "
     id="path6424" />
  <path
     style="fill:#000000;fill-opacity:1;fill-rule:evenodd;stroke:none"
     d="M 44.063326,54.365243 L 31.901842,54.365243 L 44.063326,54.365243 z M 44.063326,49.772399 L 31.901842,49.772399 L 44.063326,49.772399 z M 44.063326,45.179556 L 31.901842,45.179556 L 44.063326,45.179556 z M 44.063326,40.730237 L 25.740026,40.730237 L 44.063326,40.730237 z M 44.063326,36.424449 L 31.901842,36.424449 L 44.063326,36.424449 z M 44.063326,32.118658 L 31.901842,32.118658 L 44.063326,32.118658 z M 44.063326,27.956392 L 31.901842,27.956392 L 44.063326,27.956392 z M 44.063326,23.794128 L 31.901842,23.794128 L 44.063326,23.794128 z M 44.063326,19.775389 L 19.740361,19.775389 L 44.063326,19.775389 z "
     id="path6426" />
  <path
     style="fill:none;stroke:#000000;stroke-width:1.97899401px;stroke-linejoin:round;stroke-dasharray:none;stroke-opacity:1"
     d="M 44.063326,284.86855 L 19.740361,284.86855"
     id="path6428" />
  <path
     style="fill:none;stroke:#000000;stroke-width:1.97899401px;stroke-linejoin:round;stroke-dasharray:none;stroke-opacity:1"
     d="M 44.063326,278.98398 L 31.901842,278.98398"
     id="path6430" />
  <path
     style="fill:none;stroke:#000000;stroke-width:1.97899401px;stroke-linejoin:round;stroke-dasharray:none;stroke-opacity:1"
     d="M 44.063326,273.09938 L 25.740026,273.09938"
     id="path6432" />
  <path
     style="fill:none;stroke:#000000;stroke-width:1.97899401px;stroke-linejoin:round;stroke-dasharray:none;stroke-opacity:1"
     d="M 44.063326,267.50188 L 31.901842,267.50188"
     id="path6434" />
  <path
     style="fill:none;stroke:#000000;stroke-width:1.97899401px;stroke-linejoin:round;stroke-dasharray:none;stroke-opacity:1"
     d="M 44.063326,261.90434 L 25.740026,261.90434"
     id="path6436" />
  <path
     style="fill:none;stroke:#000000;stroke-width:1.97899401px;stroke-linejoin:round;stroke-dasharray:none;stroke-opacity:1"
     d="M 44.063326,256.45036 L 31.901842,256.45036"
     id="path6438" />
  <path
     style="fill:none;stroke:#000000;stroke-width:1.97899401px;stroke-linejoin:round;stroke-dasharray:none;stroke-opacity:1"
     d="M 44.063326,251.13987 L 25.740026,251.13987"
     id="path6440" />
  <path
     style="fill:none;stroke:#000000;stroke-width:1.97899401px;stroke-linejoin:round;stroke-dasharray:none;stroke-opacity:1"
     d="M 44.063326,245.97292 L 31.901842,245.97292"
     id="path6442" />
  <path
     style="fill:none;stroke:#000000;stroke-width:1.97899401px;stroke-linejoin:round;stroke-dasharray:none;stroke-opacity:1"
     d="M 44.063326,240.9495 L 25.740026,240.9495"
     id="path6444" />
  <path
     style="fill:none;stroke:#000000;stroke-width:1.97899401px;stroke-linejoin:round;stroke-dasharray:none;stroke-opacity:1"
     d="M 44.063326,235.92607 L 31.901842,235.92607"
     id="path6446" />
  <path
     style="fill:none;stroke:#000000;stroke-width:1.97899401px;stroke-linejoin:round;stroke-dasharray:none;stroke-opacity:1"
     d="M 44.063326,231.04616 L 19.740361,231.04616"
     id="path6448" />
  <path
     style="fill:none;stroke:#000000;stroke-width:1.97899401px;stroke-linejoin:round;stroke-dasharray:none;stroke-opacity:1"
     d="M 44.063326,226.30981 L 31.901842,226.30981"
     id="path6450" />
  <path
     style="fill:none;stroke:#000000;stroke-width:1.97899401px;stroke-linejoin:round;stroke-dasharray:none;stroke-opacity:1"
     d="M 44.063326,221.57344 L 25.740026,221.57344"
     id="path6452" />
  <path
     style="fill:none;stroke:#000000;stroke-width:1.97899401px;stroke-linejoin:round;stroke-dasharray:none;stroke-opacity:1"
     d="M 44.063326,216.98059 L 31.901842,216.98059"
     id="path6454" />
  <path
     style="fill:none;stroke:#000000;stroke-width:1.97899401px;stroke-linejoin:round;stroke-dasharray:none;stroke-opacity:1"
     d="M 44.063326,212.53126 L 25.740026,212.53126"
     id="path6456" />
  <path
     style="fill:none;stroke:#000000;stroke-width:1.97899401px;stroke-linejoin:round;stroke-dasharray:none;stroke-opacity:1"
     d="M 44.063326,208.08197 L 31.901842,208.08197"
     id="path6458" />
  <path
     style="fill:none;stroke:#000000;stroke-width:1.97899401px;stroke-linejoin:round;stroke-dasharray:none;stroke-opacity:1"
     d="M 44.063326,203.77618 L 25.740026,203.77618"
     id="path6460" />
  <path
     style="fill:none;stroke:#000000;stroke-width:1.97899401px;stroke-linejoin:round;stroke-dasharray:none;stroke-opacity:1"
     d="M 44.063326,199.47038 L 31.901842,199.47038"
     id="path6462" />
  <path
     style="fill:none;stroke:#000000;stroke-width:1.97899401px;stroke-linejoin:round;stroke-dasharray:none;stroke-opacity:1"
     d="M 44.063326,195.30812 L 25.740026,195.30812"
     id="path6464" />
  <path
     style="fill:none;stroke:#000000;stroke-width:1.97899401px;stroke-linejoin:round;stroke-dasharray:none;stroke-opacity:1"
     d="M 44.063326,191.14586 L 31.901842,191.14586"
     id="path6466" />
  <path
     style="fill:none;stroke:#000000;stroke-width:1.97899401px;stroke-linejoin:round;stroke-dasharray:none;stroke-opacity:1"
     d="M 44.063326,187.12711 L 19.740361,187.12711"
     id="path6468" />
  <path
     style="fill:none;stroke:#000000;stroke-width:1.97899401px;stroke-linejoin:round;stroke-dasharray:none;stroke-opacity:1"
     d="M 44.063326,179.08965 L 31.901842,179.08965"
     id="path6470" />
  <path
     style="fill:none;stroke:#000000;stroke-width:1.97899401px;stroke-linejoin:round;stroke-dasharray:none;stroke-opacity:1"
     d="M 44.063326,171.48273 L 31.901842,171.48273"
     id="path6472" />
  <path
     style="fill:none;stroke:#000000;stroke-width:1.97899401px;stroke-linejoin:round;stroke-dasharray:none;stroke-opacity:1"
     d="M 44.063326,164.01938 L 31.901842,164.01938"
     id="path6474" />
  <path
     style="fill:none;stroke:#000000;stroke-width:1.97899401px;stroke-linejoin:round;stroke-dasharray:none;stroke-opacity:1"
     d="M 44.063326,156.84305 L 31.901842,156.84305"
     id="path6476" />
  <path
     style="fill:none;stroke:#000000;stroke-width:1.97899401px;stroke-linejoin:round;stroke-dasharray:none;stroke-opacity:1"
     d="M 44.063326,149.81027 L 25.740026,149.81027"
     id="path6478" />
  <path
     style="fill:none;stroke:#000000;stroke-width:1.97899401px;stroke-linejoin:round;stroke-dasharray:none;stroke-opacity:1"
     d="M 44.063326,143.06453 L 31.901842,143.06453"
     id="path6480" />
  <path
     style="fill:none;stroke:#000000;stroke-width:1.97899401px;stroke-linejoin:round;stroke-dasharray:none;stroke-opacity:1"
     d="M 44.063326,136.46231 L 31.901842,136.46231"
     id="path6482" />
  <path
     style="fill:none;stroke:#000000;stroke-width:1.97899401px;stroke-linejoin:round;stroke-dasharray:none;stroke-opacity:1"
     d="M 44.063326,130.00363 L 31.901842,130.00363"
     id="path6484" />
  <path
     style="fill:none;stroke:#000000;stroke-width:1.97899401px;stroke-linejoin:round;stroke-dasharray:none;stroke-opacity:1"
     d="M 44.063326,123.68847 L 31.901842,123.68847"
     id="path6486" />
  <path
     style="fill:none;stroke:#000000;stroke-width:1.97899401px;stroke-linejoin:round;stroke-dasharray:none;stroke-opacity:1"
     d="M 44.063326,117.66036 L 19.740361,117.66036"
     id="path6488" />
  <path
     style="fill:none;stroke:#000000;stroke-width:1.97899401px;stroke-linejoin:round;stroke-dasharray:none;stroke-opacity:1"
     d="M 44.063326,111.63225 L 31.901842,111.63225"
     id="path6490" />
  <path
     style="fill:none;stroke:#000000;stroke-width:1.97899401px;stroke-linejoin:round;stroke-dasharray:none;stroke-opacity:1"
     d="M 44.063326,105.8912 L 31.901842,105.8912"
     id="path6492" />
  <path
     style="fill:none;stroke:#000000;stroke-width:1.97899401px;stroke-linejoin:round;stroke-dasharray:none;stroke-opacity:1"
     d="M 44.063326,100.15015 L 31.901842,100.15015"
     id="path6494" />
  <path
     style="fill:none;stroke:#000000;stroke-width:1.97899401px;stroke-linejoin:round;stroke-dasharray:none;stroke-opacity:1"
     d="M 44.063326,94.696147 L 31.901842,94.696147"
     id="path6496" />
  <path
     style="fill:none;stroke:#000000;stroke-width:1.97899401px;stroke-linejoin:round;stroke-dasharray:none;stroke-opacity:1"
     d="M 44.063326,89.242146 L 25.740026,89.242146"
     id="path6498" />
  <path
     style="fill:none;stroke:#000000;stroke-width:1.97899401px;stroke-linejoin:round;stroke-dasharray:none;stroke-opacity:1"
     d="M 44.063326,83.93167 L 31.901842,83.93167"
     id="path6500" />
  <path
     style="fill:none;stroke:#000000;stroke-width:1.97899401px;stroke-linejoin:round;stroke-dasharray:none;stroke-opacity:1"
     d="M 44.063326,78.764721 L 31.901842,78.764721"
     id="path6502" />
  <path
     style="fill:none;stroke:#000000;stroke-width:1.97899401px;stroke-linejoin:round;stroke-dasharray:none;stroke-opacity:1"
     d="M 44.063326,73.597773 L 31.901842,73.597773"
     id="path6504" />
  <path
     style="fill:none;stroke:#000000;stroke-width:1.97899401px;stroke-linejoin:round;stroke-dasharray:none;stroke-opacity:1"
     d="M 44.063326,68.717878 L 31.901842,68.717878"
     id="path6506" />
  <path
     style="fill:none;stroke:#000000;stroke-width:1.97899401px;stroke-linejoin:round;stroke-dasharray:none;stroke-opacity:1"
     d="M 44.063326,63.837981 L 19.740361,63.837981"
     id="path6508" />
  <path
     style="fill:none;stroke:#000000;stroke-width:1.97899401px;stroke-linejoin:round;stroke-dasharray:none;stroke-opacity:1"
     d="M 44.063326,58.958086 L 31.901842,58.958086"
     id="path6510" />
  <path
     style="fill:none;stroke:#000000;stroke-width:1.97899401px;stroke-linejoin:round;stroke-dasharray:none;stroke-opacity:1"
     d="M 44.063326,54.365243 L 31.901842,54.365243"
     id="path6512" />
  <path
     style="fill:none;stroke:#000000;stroke-width:1.97899401px;stroke-linejoin:round;stroke-dasharray:none;stroke-opacity:1"
     d="M 44.063326,49.772399 L 31.901842,49.772399"
     id="path6514" />
  <path
     style="fill:none;stroke:#000000;stroke-width:1.97899401px;stroke-linejoin:round;stroke-dasharray:none;stroke-opacity:1"
     d="M 44.063326,45.179556 L 31.901842,45.179556"
     id="path6516" />
  <path
     style="fill:none;stroke:#000000;stroke-width:1.97899401px;stroke-linejoin:round;stroke-dasharray:none;stroke-opacity:1"
     d="M 44.063326,40.730237 L 25.740026,40.730237"
     id="path6518" />
  <path
     style="fill:none;stroke:#000000;stroke-width:1.97899401px;stroke-linejoin:round;stroke-dasharray:none;stroke-opacity:1"
     d="M 44.063326,36.424449 L 31.901842,36.424449"
     id="path6520" />
  <path
     style="fill:none;stroke:#000000;stroke-width:1.97899401px;stroke-linejoin:round;stroke-dasharray:none;stroke-opacity:1"
     d="M 44.063326,32.118658 L 31.901842,32.118658"
     id="path6522" />
  <path
     style="fill:none;stroke:#000000;stroke-width:1.97899401px;stroke-linejoin:round;stroke-dasharray:none;stroke-opacity:1"
     d="M 44.063326,27.956392 L 31.901842,27.956392"
     id="path6524" />
  <path
     style="fill:none;stroke:#000000;stroke-width:1.97899401px;stroke-linejoin:round;stroke-dasharray:none;stroke-opacity:1"
     d="M 44.063326,23.794128 L 31.901842,23.794128"
     id="path6526" />
  <path
     style="fill:none;stroke:#000000;stroke-width:1.97899401px;stroke-linejoin:round;stroke-dasharray:none;stroke-opacity:1"
     d="M 44.063326,19.775389 L 19.740361,19.775389"
     id="path6528" />
  <path
     style="fill:none;stroke:#000000;stroke-width:2.07777715px;stroke-linejoin:round;stroke-dasharray:none;stroke-opacity:1"
     d="M 87.938431,221.46683 L 326.73508,52.30427"
     id="path6530" />
  <path
     style="fill:none;stroke:#000000;stroke-width:2.07777715px;stroke-linejoin:round;stroke-dasharray:none;stroke-opacity:1"
     d="M 87.938431,224.08505 L 87.938431,217.34721"
     id="path6532" />
  <path
     style="fill:none;stroke:#000000;stroke-width:2.07777715px;stroke-linejoin:round;stroke-dasharray:none;stroke-opacity:1"
     d="M 128.47295,195.41345 L 128.47295,188.67558"
     id="path6534" />
  <path
     style="fill:none;stroke:#000000;stroke-width:2.07777715px;stroke-linejoin:round;stroke-dasharray:none;stroke-opacity:1"
     d="M 167.74734,167.4586 L 167.74734,160.72077"
     id="path6536" />
  <path
     style="fill:none;stroke:#000000;stroke-width:2.07777715px;stroke-linejoin:round;stroke-dasharray:none;stroke-opacity:1"
     d="M 207.44177,139.3604 L 207.44177,132.62258"
     id="path6538" />
  <path
     style="fill:none;stroke:#000000;stroke-width:2.07777715px;stroke-linejoin:round;stroke-dasharray:none;stroke-opacity:1"
     d="M 246.71618,111.69229 L 246.71618,104.95446"
     id="path6540" />
  <path
     style="fill:none;stroke:#000000;stroke-width:2.07777715px;stroke-linejoin:round;stroke-dasharray:none;stroke-opacity:1"
     d="M 287.46072,82.733956 L 287.46072,75.852768"
     id="path6542" />
  <path
     style="fill:none;stroke:#000000;stroke-width:2.07777715px;stroke-linejoin:round;stroke-dasharray:none;stroke-opacity:1"
     d="M 326.73508,54.922484 L 326.73508,48.041295"
     id="path6544" />
  <path
     style="fill:none;stroke:#000000;stroke-width:2.07777715px;stroke-linejoin:round;stroke-dasharray:none;stroke-opacity:1"
     d="M 107.26059,210.46604 L 107.26059,203.72818"
     id="path6546" />
  <path
     style="fill:none;stroke:#000000;stroke-width:2.07777715px;stroke-linejoin:round;stroke-dasharray:none;stroke-opacity:1"
     d="M 147.58508,181.79441 L 147.58508,175.05658"
     id="path6548" />
  <path
     style="fill:none;stroke:#000000;stroke-width:2.07777715px;stroke-linejoin:round;stroke-dasharray:none;stroke-opacity:1"
     d="M 187.06949,153.98294 L 187.06949,147.10175"
     id="path6550" />
  <path
     style="fill:none;stroke:#000000;stroke-width:2.07777715px;stroke-linejoin:round;stroke-dasharray:none;stroke-opacity:1"
     d="M 226.76393,125.88475 L 226.76393,119.00356"
     id="path6552" />
  <path
     style="fill:none;stroke:#000000;stroke-width:2.07777715px;stroke-linejoin:round;stroke-dasharray:none;stroke-opacity:1"
     d="M 265.82827,98.073273 L 265.82827,91.335442"
     id="path6554" />
  <path
     style="fill:none;stroke:#000000;stroke-width:2.07777715px;stroke-linejoin:round;stroke-dasharray:none;stroke-opacity:1"
     d="M 306.78285,69.114936 L 306.78285,62.233748"
     id="path6556" />
  <text
     xml:space="preserve"
     style="font-size:15.10085583px;font-style:normal;font-variant:normal;font-weight:normal;font-stretch:normal;text-align:start;line-height:125%;writing-mode:lr-tb;text-anchor:start;fill:#000000;fill-opacity:1;stroke:none;stroke-width:1px;stroke-linecap:butt;stroke-linejoin:miter;stroke-opacity:1;font-family:Arial"
     x="3.0572023"
     y="197.16216"
     id="text6563"
     sodipodi:linespacing="125%"
     transform="scale(1.0651828,0.938806)"><tspan
       sodipodi:role="line"
       id="tspan6565"
       x="3.0572023"
       y="197.16216">300</tspan></text>
  <text
     xml:space="preserve"
     style="font-size:15.10085583px;font-style:normal;font-variant:normal;font-weight:normal;font-stretch:normal;text-align:start;line-height:125%;writing-mode:lr-tb;text-anchor:start;fill:#000000;fill-opacity:1;stroke:none;stroke-width:1px;stroke-linecap:butt;stroke-linejoin:miter;stroke-opacity:1;font-family:Arial"
     x="3.6910677"
     y="122.91343"
     id="text6567"
     sodipodi:linespacing="125%"
     transform="scale(1.0651828,0.938806)"><tspan
       sodipodi:role="line"
       id="tspan6569"
       x="3.6910677"
       y="122.91343">400</tspan></text>
  <text
     xml:space="preserve"
     style="font-size:15.10085583px;font-style:normal;font-variant:normal;font-weight:normal;font-stretch:normal;text-align:start;line-height:125%;writing-mode:lr-tb;text-anchor:start;fill:#000000;fill-opacity:1;stroke:none;stroke-width:1px;stroke-linecap:butt;stroke-linejoin:miter;stroke-opacity:1;font-family:Arial"
     x="3.0876102"
     y="65.190926"
     id="text6575"
     sodipodi:linespacing="125%"
     transform="scale(1.0651828,0.938806)"><tspan
       sodipodi:role="line"
       id="tspan6577"
       x="3.0876102"
       y="65.190926">500</tspan></text>
  <text
     xml:space="preserve"
     style="font-size:15.10085583px;font-style:normal;font-variant:normal;font-weight:normal;font-stretch:normal;text-align:start;line-height:125%;writing-mode:lr-tb;text-anchor:start;fill:#000000;fill-opacity:1;stroke:none;stroke-width:1px;stroke-linecap:butt;stroke-linejoin:miter;stroke-opacity:1;font-family:Arial"
     x="2.7655647"
     y="153.11429"
     id="text6653"
     sodipodi:linespacing="125%"
     transform="scale(1.0651828,0.938806)"><tspan
       sodipodi:role="line"
       id="tspan6655"
       x="2.7655647"
       y="153.11429">Hz</tspan></text>
  <text
     xml:space="preserve"
     style="font-size:15.10085583px;font-style:normal;font-variant:normal;font-weight:normal;font-stretch:normal;text-align:start;line-height:125%;writing-mode:lr-tb;text-anchor:start;fill:#000000;fill-opacity:1;stroke:none;stroke-width:1px;stroke-linecap:butt;stroke-linejoin:miter;stroke-opacity:1;font-family:Arial"
     x="3.0285635"
     y="14.555883"
     id="text6657"
     sodipodi:linespacing="125%"
     transform="scale(1.0651828,0.938806)"><tspan
       sodipodi:role="line"
       id="tspan6659"
       x="3.0285635"
       y="14.555883">Frequency</tspan></text>
  <g
     style="fill:none;stroke:#000000;stroke-width:1"
     id="lines"
     transform="matrix(1.1985297,0,0,0.9966802,50.343007,212.40955)">
    <path
       d="M 1,46.5 L 258,46.5"
       id="path14" />
    <path
       d="M 1,39.5 L 258,39.5"
       id="path18" />
    <path
       d="M 1,32.5 L 258,32.5"
       id="path22" />
    <path
       d="M 1,25.5 L 258,25.5"
       id="path26" />
    <path
       d="M 1,18.5 L 258,18.5"
       id="path30" />
  </g>
  <path
     d="M 67.803085,221.29156 C 67.755111,221.3161 67.582598,221.48788 67.410085,221.66088 C 65.651092,223.39582 64.577488,225.59579 64.30424,228.03993 C 64.256388,228.4571 64.256388,229.45954 64.280314,230.12088 C 64.380926,232.58833 64.769141,234.44352 65.77563,237.59685 L 65.895506,238.03856 L 65.186191,238.94407 C 62.890395,241.85323 62.008445,243.14769 61.251155,244.71454 C 60.493866,246.2777 60.124914,247.69609 60.076939,249.26294 C 60.005038,252.11934 61.275204,254.81378 63.54695,256.49597 C 65.406678,257.88981 67.654499,258.45545 70.074832,258.11067 C 70.271393,258.08735 70.443906,258.06281 70.443906,258.08735 L 70.443906,259.28488 C 70.443906,262.02227 70.271393,263.17194 69.686617,264.3707 C 69.317665,265.12774 68.87669,265.68847 68.339888,266.0811 C 67.731185,266.54613 67.117697,266.74244 66.360407,266.74244 C 65.502505,266.74244 64.745215,266.49828 64.059826,265.9854 C 63.844124,265.83694 63.47505,265.46762 63.326463,265.25167 L 63.20671,265.1032 L 63.302537,265.15106 C 64.136512,265.4443 65.210117,265.07989 65.77563,264.32285 C 66.235746,263.70936 66.360407,262.95109 66.115993,262.14619 C 65.823605,261.12044 65.013555,260.43579 64.011852,260.38793 C 63.058123,260.35849 62.080346,260.82351 61.56747,261.63331 C 61.179254,262.24189 61.078642,262.97563 61.29913,263.92899 C 61.56747,265.19891 62.401445,266.32527 63.570999,267.01115 C 64.333074,267.47618 65.234043,267.74488 66.139919,267.79274 C 67.755111,267.84059 69.173863,267.08354 70.199493,265.56823 C 70.884882,264.54248 71.273097,263.36826 71.373709,261.92656 C 71.469658,260.97197 71.469658,260.5548 71.493584,259.18918 L 71.493584,257.79411 L 71.737998,257.69349 C 72.739701,257.30577 73.597603,256.66774 74.330967,255.76223 C 75.577084,254.22361 75.994133,252.19664 75.481257,250.21752 C 75.016356,248.38074 73.794165,246.8188 72.155047,246.009 C 71.373709,245.62004 70.611634,245.42373 69.710665,245.37588 L 69.293616,245.34766 L 69.197789,244.93539 C 68.900616,243.88019 68.339888,242.07408 67.779037,240.33914 L 67.654499,239.99436 L 68.071425,239.4324 C 69.806492,237.20912 70.760221,235.56988 71.373709,233.93064 C 71.93456,232.39201 72.130999,230.77731 71.93456,229.30985 C 71.594196,226.64608 70.098881,223.34797 68.4405,221.56027 C 68.143326,221.24371 67.999524,221.17254 67.803085,221.29156 z M 69.317665,224.83875 C 69.365517,224.91114 69.758517,225.6915 69.878393,225.96021 C 70.002931,226.30498 70.122807,226.79455 70.199493,227.18718 C 70.247467,227.59945 70.247467,228.96998 70.199493,229.38715 C 69.931153,231.68282 69.073128,233.68647 67.213523,236.27908 C 67.045796,236.52324 66.873283,236.76864 66.801382,236.86434 L 66.676721,237.01281 L 66.60482,236.7441 C 66.163845,235.37357 65.722993,233.63862 65.579191,232.63618 C 65.502505,232.14785 65.502505,231.2178 65.555142,230.72946 C 65.77563,229.11353 66.336481,227.77245 67.338184,226.52584 C 67.582598,226.20437 68.167375,225.62033 68.488474,225.37494 C 68.732888,225.17862 69.245764,224.81421 69.26969,224.81421 C 69.26969,224.81421 69.293616,224.83875 69.317665,224.83875 z M 67.141623,241.78206 C 67.702351,243.51701 68.244061,245.40042 68.220012,245.42373 C 68.220012,245.42373 68.095474,245.47158 67.999524,245.47158 C 67.678425,245.54397 67.141623,245.71698 66.849234,245.86544 C 66.312432,246.13292 65.895506,246.40163 65.478456,246.8188 C 64.208413,248.11326 63.743512,250.04452 64.30424,251.77946 C 64.524728,252.5132 64.941654,253.17454 65.502505,253.73527 C 65.94348,254.17575 66.384333,254.49231 66.997821,254.78433 C 67.290209,254.9328 67.338184,254.9328 67.486771,254.9328 C 67.630573,254.9328 67.654499,254.9328 67.755111,254.86163 C 67.898912,254.76102 67.999524,254.5647 67.999524,254.39661 C 67.975598,254.17575 67.898912,254.10459 67.582598,253.90705 C 66.068018,253.04939 65.334777,251.631 65.746919,250.21752 C 66.044092,249.16232 66.945184,248.38074 68.191301,248.11326 C 68.4405,248.04087 68.900616,247.98811 68.929327,248.01265 C 68.929327,248.01265 69.025276,248.35743 69.173863,249.04331 C 69.633979,250.95003 69.955079,252.73282 70.151518,254.44446 C 70.295319,255.51807 70.41998,256.96099 70.36722,257.01375 C 70.343294,257.03706 69.854467,257.10945 69.389443,257.13277 C 67.874986,257.22847 66.580894,256.9843 65.282017,256.32787 C 64.548654,255.95855 63.964,255.51807 63.403149,254.98065 C 62.497395,254.05183 61.984519,253.02607 61.859858,251.87517 C 61.812006,251.55861 61.835932,250.8261 61.883907,250.36108 C 62.157032,248.18443 63.034197,246.15746 64.869876,243.61271 C 65.382629,242.87898 66.825308,241.00048 66.873283,241.00048 L 67.141623,241.78206 z M 70.443906,248.13657 C 72.32756,248.55374 73.717479,250.06783 74.062505,252.02363 C 74.086553,252.19664 74.086553,252.39295 74.086553,252.75737 C 74.086553,253.19785 74.086553,253.29355 74.038578,253.56227 C 73.985819,253.75858 73.937966,254.00275 73.889992,254.10459 C 73.597603,254.95734 72.960189,255.81499 72.226825,256.30333 C 71.958486,256.49597 71.44561,256.74013 71.421684,256.71559 C 71.421684,256.69228 71.397758,256.54873 71.397758,256.40026 C 71.321072,255.44567 71.105369,253.61503 70.884882,252.31565 C 70.68832,251.09358 70.271393,249.01877 70.050906,248.16111 L 70.002931,248.04087 L 70.074832,248.06541 C 70.122807,248.06541 70.271393,248.08872 70.443906,248.13657 z "
     style="fill:#000000;fill-rule:evenodd;stroke:#000000;stroke-width:0;stroke-linecap:round;stroke-linejoin:round;stroke-miterlimit:10"
     id="path42" />
  <g
     transform="matrix(0.9525362,0,0,0.9525362,0.1739027,231.70194)"
     id="g2281">
    <path
       d="M 94.51026,34.309462 L 94.878348,34.309462 L 94.878348,10.60281 L 94.51026,10.60281 L 94.51026,34.309462 z "
       style="fill:#000000;fill-rule:nonzero;stroke:#000000;stroke-width:0;stroke-linecap:butt;stroke-linejoin:round;stroke-miterlimit:10"
       id="path86" />
    <path
       d="M 94.51026,34.309462 L 94.878348,34.309462 L 94.878348,10.60281 L 94.51026,10.60281 L 94.51026,34.309462 z "
       style="fill:#000000;stroke:#000000;stroke-width:0.58674884;stroke-linecap:butt;stroke-linejoin:round;stroke-miterlimit:10"
       id="path90" />
    <path
       d="M 91.375752,31.348523 C 90.172824,31.497233 88.943388,31.99195 87.88476,32.815006 C 86.681832,33.694011 85.86024,34.867491 85.59522,36.070419 C 85.5378,36.454708 85.5378,37.127581 85.624668,37.422055 C 85.888224,38.451243 86.71128,39.094669 87.94218,39.359697 C 88.292604,39.417119 89.178972,39.417119 89.616264,39.359697 C 90.730848,39.152092 91.876356,38.651485 92.870208,37.921189 C 94.043688,37.042183 94.866744,35.868703 95.131764,34.665777 C 95.189196,34.281487 95.189196,33.608614 95.102316,33.286164 C 94.837296,32.320289 94.043688,31.6695 92.870208,31.405945 C 92.549232,31.348523 91.726176,31.319076 91.375752,31.348523 z "
       style="fill:#000000;fill-rule:evenodd;stroke:#000000;stroke-width:0;stroke-linecap:butt;stroke-linejoin:round;stroke-miterlimit:10"
       id="path102" />
  </g>
  <path
     id="path78"
     style="fill:#000000;fill-rule:evenodd;stroke:#000000;stroke-width:0;stroke-linecap:butt;stroke-linejoin:round;stroke-miterlimit:10"
     d="M 201.11352,244.20444 C 200.97071,244.26775 200.87795,244.35462 200.82053,244.49891 C 200.76309,244.5902 200.76309,244.91265 200.76309,246.93716 L 200.76309,249.2267 L 199.58961,249.74939 L 198.41613,250.24999 L 198.38816,248.05322 C 198.38816,246.05668 198.35871,245.8211 198.33074,245.73423 C 198.09369,245.32049 197.47824,245.34994 197.30009,245.79313 C 197.24265,245.87852 197.24265,246.20097 197.24265,248.31088 L 197.24265,250.7506 L 196.50648,251.0436 C 196.0412,251.25121 195.7482,251.39403 195.71875,251.45145 C 195.5406,251.62961 195.5406,251.65905 195.5406,252.77511 C 195.5406,253.68356 195.5406,253.79841 195.59802,253.91914 C 195.69078,254.12086 195.92047,254.26957 196.15605,254.24159 C 196.24292,254.24159 196.50648,254.12086 196.74205,254.03399 L 197.21468,253.82786 C 197.24265,253.82786 197.24265,254.85704 197.24265,256.14537 L 197.24265,258.46289 L 196.50648,258.75588 C 196.0412,258.96349 195.7482,259.1122 195.71875,259.16962 C 195.5406,259.34336 195.5406,259.37723 195.5406,260.4874 C 195.5406,261.39584 195.5406,261.51658 195.59802,261.63143 C 195.69078,261.83903 195.92047,261.98921 196.15605,261.95388 C 196.24292,261.95388 196.50648,261.83903 196.74205,261.75216 L 197.21468,261.54602 C 197.24265,261.54602 197.24265,262.48246 197.24265,263.62796 C 197.24265,265.41689 197.24265,265.70989 197.30009,265.80118 C 197.47824,266.26793 198.15111,266.26793 198.33074,265.80118 C 198.38816,265.70989 198.38816,265.38744 198.38816,263.36293 L 198.38816,261.01597 L 199.56017,260.51684 L 200.76309,260.02212 L 200.76309,262.24687 C 200.76309,264.24341 200.79108,264.47899 200.82053,264.53641 C 201.0561,264.9796 201.64358,264.95015 201.84971,264.50696 C 201.90713,264.42157 201.90713,264.27139 201.90713,261.95388 L 201.90713,259.52152 L 202.63742,259.22851 C 203.11005,259.02091 203.40306,258.87662 203.43104,258.81919 C 203.60919,258.64104 203.60919,258.61307 203.60919,257.49701 C 203.60919,256.58855 203.60919,256.47224 203.55177,256.3515 C 203.46048,256.14537 203.22491,256.00108 202.99521,256.03053 C 202.90245,256.03053 202.63742,256.14537 202.40774,256.23666 L 201.93657,256.43837 C 201.90713,256.43837 201.90713,255.41507 201.90713,254.12086 L 201.90713,251.80776 L 202.63742,251.50887 C 203.11005,251.30863 203.40306,251.15845 203.43104,251.10102 C 203.60919,250.92287 203.60919,250.89342 203.60919,249.78325 C 203.60919,248.86891 203.60919,248.75406 203.55177,248.63922 C 203.46048,248.43162 203.22491,248.28291 202.99521,248.31088 C 202.90245,248.31088 202.63742,248.43162 202.40774,248.51849 L 201.93657,248.72609 C 201.90713,248.72609 201.90713,247.78819 201.90713,246.67213 C 201.90713,244.73449 201.90713,244.5902 201.84971,244.46947 C 201.72897,244.20444 201.37855,244.06162 201.11352,244.20444 z M 200.76309,254.62146 L 200.76309,256.93898 L 199.61906,257.43959 C 199.00362,257.70314 198.47357,257.94019 198.44558,257.94019 C 198.38816,257.96816 198.38816,257.90485 198.38816,255.65065 L 198.38816,253.30369 L 199.56017,252.80309 L 200.76309,252.30248 L 200.76309,254.62146 z " />
  <path
     d="M 51.527267,230.88292 L 51.527267,258.82947"
     style="fill:none;fill-rule:evenodd;stroke:#000000;stroke-width:0.93818009px;stroke-linecap:butt;stroke-linejoin:miter;stroke-opacity:1"
     id="path2419" />
  <path
     style="fill:none;stroke:#000000;stroke-width:1"
     id="path2394"
     d="M 76.419246,265.67725 L 92.697696,265.67725"
     sodipodi:nodetypes="cc" />
  <g
     transform="matrix(0.9525362,0,0,0.9525362,40.184171,229.1405)"
     id="g3376">
    <path
       d="M 94.51026,34.309462 L 94.878348,34.309462 L 94.878348,10.60281 L 94.51026,10.60281 L 94.51026,34.309462 z "
       style="fill:#000000;fill-rule:nonzero;stroke:#000000;stroke-width:0;stroke-linecap:butt;stroke-linejoin:round;stroke-miterlimit:10"
       id="path3378" />
    <path
       d="M 94.51026,34.309462 L 94.878348,34.309462 L 94.878348,10.60281 L 94.51026,10.60281 L 94.51026,34.309462 z "
       style="fill:#000000;stroke:#000000;stroke-width:0.58674884;stroke-linecap:butt;stroke-linejoin:round;stroke-miterlimit:10"
       id="path3380" />
    <path
       d="M 91.375752,31.348523 C 90.172824,31.497233 88.943388,31.99195 87.88476,32.815006 C 86.681832,33.694011 85.86024,34.867491 85.59522,36.070419 C 85.5378,36.454708 85.5378,37.127581 85.624668,37.422055 C 85.888224,38.451243 86.71128,39.094669 87.94218,39.359697 C 88.292604,39.417119 89.178972,39.417119 89.616264,39.359697 C 90.730848,39.152092 91.876356,38.651485 92.870208,37.921189 C 94.043688,37.042183 94.866744,35.868703 95.131764,34.665777 C 95.189196,34.281487 95.189196,33.608614 95.102316,33.286164 C 94.837296,32.320289 94.043688,31.6695 92.870208,31.405945 C 92.549232,31.348523 91.726176,31.319076 91.375752,31.348523 z "
       style="fill:#000000;fill-rule:evenodd;stroke:#000000;stroke-width:0;stroke-linecap:butt;stroke-linejoin:round;stroke-miterlimit:10"
       id="path3382" />
  </g>
  <g
     transform="matrix(0.9525362,0,0,0.9525362,139.97405,218.88932)"
     id="g3403">
    <path
       d="M 94.51026,34.309462 L 94.878348,34.309462 L 94.878348,10.60281 L 94.51026,10.60281 L 94.51026,34.309462 z "
       style="fill:#000000;fill-rule:nonzero;stroke:#000000;stroke-width:0;stroke-linecap:butt;stroke-linejoin:round;stroke-miterlimit:10"
       id="path3405" />
    <path
       d="M 94.51026,34.309462 L 94.878348,34.309462 L 94.878348,10.60281 L 94.51026,10.60281 L 94.51026,34.309462 z "
       style="fill:#000000;stroke:#000000;stroke-width:0.58674884;stroke-linecap:butt;stroke-linejoin:round;stroke-miterlimit:10"
       id="path3407" />
    <path
       d="M 91.375752,31.348523 C 90.172824,31.497233 88.943388,31.99195 87.88476,32.815006 C 86.681832,33.694011 85.86024,34.867491 85.59522,36.070419 C 85.5378,36.454708 85.5378,37.127581 85.624668,37.422055 C 85.888224,38.451243 86.71128,39.094669 87.94218,39.359697 C 88.292604,39.417119 89.178972,39.417119 89.616264,39.359697 C 90.730848,39.152092 91.876356,38.651485 92.870208,37.921189 C 94.043688,37.042183 94.866744,35.868703 95.131764,34.665777 C 95.189196,34.281487 95.189196,33.608614 95.102316,33.286164 C 94.837296,32.320289 94.043688,31.6695 92.870208,31.405945 C 92.549232,31.348523 91.726176,31.319076 91.375752,31.348523 z "
       style="fill:#000000;fill-rule:evenodd;stroke:#000000;stroke-width:0;stroke-linecap:butt;stroke-linejoin:round;stroke-miterlimit:10"
       id="path3409" />
  </g>
  <g
     transform="matrix(0.9525362,0,0,0.9525362,99.313046,222.33137)"
     id="g3411">
    <path
       d="M 94.51026,34.309462 L 94.878348,34.309462 L 94.878348,10.60281 L 94.51026,10.60281 L 94.51026,34.309462 z "
       style="fill:#000000;fill-rule:nonzero;stroke:#000000;stroke-width:0;stroke-linecap:butt;stroke-linejoin:round;stroke-miterlimit:10"
       id="path3413" />
    <path
       d="M 94.51026,34.309462 L 94.878348,34.309462 L 94.878348,10.60281 L 94.51026,10.60281 L 94.51026,34.309462 z "
       style="fill:#000000;stroke:#000000;stroke-width:0.58674884;stroke-linecap:butt;stroke-linejoin:round;stroke-miterlimit:10"
       id="path3415" />
    <path
       d="M 91.375752,31.348523 C 90.172824,31.497233 88.943388,31.99195 87.88476,32.815006 C 86.681832,33.694011 85.86024,34.867491 85.59522,36.070419 C 85.5378,36.454708 85.5378,37.127581 85.624668,37.422055 C 85.888224,38.451243 86.71128,39.094669 87.94218,39.359697 C 88.292604,39.417119 89.178972,39.417119 89.616264,39.359697 C 90.730848,39.152092 91.876356,38.651485 92.870208,37.921189 C 94.043688,37.042183 94.866744,35.868703 95.131764,34.665777 C 95.189196,34.281487 95.189196,33.608614 95.102316,33.286164 C 94.837296,32.320289 94.043688,31.6695 92.870208,31.405945 C 92.549232,31.348523 91.726176,31.319076 91.375752,31.348523 z "
       style="fill:#000000;fill-rule:evenodd;stroke:#000000;stroke-width:0;stroke-linecap:butt;stroke-linejoin:round;stroke-miterlimit:10"
       id="path3417" />
  </g>
  <g
     transform="matrix(0.9525362,0,0,0.9525362,123.1916,220.83975)"
     id="g3419">
    <path
       d="M 94.51026,34.309462 L 94.878348,34.309462 L 94.878348,10.60281 L 94.51026,10.60281 L 94.51026,34.309462 z "
       style="fill:#000000;fill-rule:nonzero;stroke:#000000;stroke-width:0;stroke-linecap:butt;stroke-linejoin:round;stroke-miterlimit:10"
       id="path3421" />
    <path
       d="M 94.51026,34.309462 L 94.878348,34.309462 L 94.878348,10.60281 L 94.51026,10.60281 L 94.51026,34.309462 z "
       style="fill:#000000;stroke:#000000;stroke-width:0.58674884;stroke-linecap:butt;stroke-linejoin:round;stroke-miterlimit:10"
       id="path3423" />
    <path
       d="M 91.375752,31.348523 C 90.172824,31.497233 88.943388,31.99195 87.88476,32.815006 C 86.681832,33.694011 85.86024,34.867491 85.59522,36.070419 C 85.5378,36.454708 85.5378,37.127581 85.624668,37.422055 C 85.888224,38.451243 86.71128,39.094669 87.94218,39.359697 C 88.292604,39.417119 89.178972,39.417119 89.616264,39.359697 C 90.730848,39.152092 91.876356,38.651485 92.870208,37.921189 C 94.043688,37.042183 94.866744,35.868703 95.131764,34.665777 C 95.189196,34.281487 95.189196,33.608614 95.102316,33.286164 C 94.837296,32.320289 94.043688,31.6695 92.870208,31.405945 C 92.549232,31.348523 91.726176,31.319076 91.375752,31.348523 z "
       style="fill:#000000;fill-rule:evenodd;stroke:#000000;stroke-width:0;stroke-linecap:butt;stroke-linejoin:round;stroke-miterlimit:10"
       id="path3425" />
  </g>
  <path
     id="path3439"
     style="fill:#000000;fill-rule:evenodd;stroke:#000000;stroke-width:0;stroke-linecap:butt;stroke-linejoin:round;stroke-miterlimit:10"
     d="M 140.58566,250.569 C 140.44285,250.63231 140.35009,250.71918 140.29267,250.86347 C 140.23523,250.95476 140.23523,251.27721 140.23523,253.30172 L 140.23523,255.59126 L 139.06175,256.11395 L 137.88827,256.61455 L 137.8603,254.41778 C 137.8603,252.42124 137.83085,252.18566 137.80288,252.09879 C 137.56583,251.68505 136.95038,251.7145 136.77223,252.15769 C 136.71479,252.24308 136.71479,252.56553 136.71479,254.67544 L 136.71479,257.11516 L 135.97862,257.40816 C 135.51334,257.61577 135.22034,257.75859 135.19089,257.81601 C 135.01274,257.99417 135.01274,258.02361 135.01274,259.13967 C 135.01274,260.04812 135.01274,260.16297 135.07016,260.2837 C 135.16292,260.48542 135.39261,260.63413 135.62819,260.60615 C 135.71506,260.60615 135.97862,260.48542 136.21419,260.39855 L 136.68682,260.19242 C 136.71479,260.19242 136.71479,261.2216 136.71479,262.50993 L 136.71479,264.82745 L 135.97862,265.12044 C 135.51334,265.32805 135.22034,265.47676 135.19089,265.53418 C 135.01274,265.70792 135.01274,265.74179 135.01274,266.85196 C 135.01274,267.7604 135.01274,267.88114 135.07016,267.99599 C 135.16292,268.20359 135.39261,268.35377 135.62819,268.31844 C 135.71506,268.31844 135.97862,268.20359 136.21419,268.11672 L 136.68682,267.91058 C 136.71479,267.91058 136.71479,268.84702 136.71479,269.99252 C 136.71479,271.78145 136.71479,272.07445 136.77223,272.16574 C 136.95038,272.63249 137.62325,272.63249 137.80288,272.16574 C 137.8603,272.07445 137.8603,271.752 137.8603,269.72749 L 137.8603,267.38053 L 139.03231,266.8814 L 140.23523,266.38668 L 140.23523,268.61143 C 140.23523,270.60797 140.26322,270.84355 140.29267,270.90097 C 140.52824,271.34416 141.11572,271.31471 141.32185,270.87152 C 141.37927,270.78613 141.37927,270.63595 141.37927,268.31844 L 141.37927,265.88608 L 142.10956,265.59307 C 142.58219,265.38547 142.8752,265.24118 142.90318,265.18375 C 143.08133,265.0056 143.08133,264.97763 143.08133,263.86157 C 143.08133,262.95311 143.08133,262.8368 143.02391,262.71606 C 142.93262,262.50993 142.69705,262.36564 142.46735,262.39509 C 142.37459,262.39509 142.10956,262.50993 141.87988,262.60122 L 141.40871,262.80293 C 141.37927,262.80293 141.37927,261.77963 141.37927,260.48542 L 141.37927,258.17232 L 142.10956,257.87343 C 142.58219,257.67319 142.8752,257.52301 142.90318,257.46558 C 143.08133,257.28743 143.08133,257.25798 143.08133,256.14781 C 143.08133,255.23347 143.08133,255.11862 143.02391,255.00378 C 142.93262,254.79618 142.69705,254.64747 142.46735,254.67544 C 142.37459,254.67544 142.10956,254.79618 141.87988,254.88305 L 141.40871,255.09065 C 141.37927,255.09065 141.37927,254.15275 141.37927,253.03669 C 141.37927,251.09905 141.37927,250.95476 141.32185,250.83403 C 141.20111,250.569 140.85069,250.42618 140.58566,250.569 z M 140.23523,260.98602 L 140.23523,263.30354 L 139.0912,263.80415 C 138.47576,264.0677 137.94571,264.30475 137.91772,264.30475 C 137.8603,264.33272 137.8603,264.26941 137.8603,262.01521 L 137.8603,259.66825 L 139.03231,259.16765 L 140.23523,258.66704 L 140.23523,260.98602 z " />
  <g
     transform="matrix(0.9525362,0,0,0.9525362,62.465112,228.26673)"
     id="g3457">
    <path
       d="M 94.51026,34.309462 L 94.878348,34.309462 L 94.878348,10.60281 L 94.51026,10.60281 L 94.51026,34.309462 z "
       style="fill:#000000;fill-rule:nonzero;stroke:#000000;stroke-width:0;stroke-linecap:butt;stroke-linejoin:round;stroke-miterlimit:10"
       id="path3459" />
    <path
       d="M 94.51026,34.309462 L 94.878348,34.309462 L 94.878348,10.60281 L 94.51026,10.60281 L 94.51026,34.309462 z "
       style="fill:#000000;stroke:#000000;stroke-width:0.58674884;stroke-linecap:butt;stroke-linejoin:round;stroke-miterlimit:10"
       id="path3461" />
    <path
       d="M 91.375752,31.348523 C 90.172824,31.497233 88.943388,31.99195 87.88476,32.815006 C 86.681832,33.694011 85.86024,34.867491 85.59522,36.070419 C 85.5378,36.454708 85.5378,37.127581 85.624668,37.422055 C 85.888224,38.451243 86.71128,39.094669 87.94218,39.359697 C 88.292604,39.417119 89.178972,39.417119 89.616264,39.359697 C 90.730848,39.152092 91.876356,38.651485 92.870208,37.921189 C 94.043688,37.042183 94.866744,35.868703 95.131764,34.665777 C 95.189196,34.281487 95.189196,33.608614 95.102316,33.286164 C 94.837296,32.320289 94.043688,31.6695 92.870208,31.405945 C 92.549232,31.348523 91.726176,31.319076 91.375752,31.348523 z "
       style="fill:#000000;fill-rule:evenodd;stroke:#000000;stroke-width:0;stroke-linecap:butt;stroke-linejoin:round;stroke-miterlimit:10"
       id="path3463" />
  </g>
  <g
     transform="matrix(0.9525362,0,0,0.9525362,80.86713,226.21028)"
     id="g3465">
    <path
       d="M 94.51026,34.309462 L 94.878348,34.309462 L 94.878348,10.60281 L 94.51026,10.60281 L 94.51026,34.309462 z "
       style="fill:#000000;fill-rule:nonzero;stroke:#000000;stroke-width:0;stroke-linecap:butt;stroke-linejoin:round;stroke-miterlimit:10"
       id="path3467" />
    <path
       d="M 94.51026,34.309462 L 94.878348,34.309462 L 94.878348,10.60281 L 94.51026,10.60281 L 94.51026,34.309462 z "
       style="fill:#000000;stroke:#000000;stroke-width:0.58674884;stroke-linecap:butt;stroke-linejoin:round;stroke-miterlimit:10"
       id="path3469" />
    <path
       d="M 91.375752,31.348523 C 90.172824,31.497233 88.943388,31.99195 87.88476,32.815006 C 86.681832,33.694011 85.86024,34.867491 85.59522,36.070419 C 85.5378,36.454708 85.5378,37.127581 85.624668,37.422055 C 85.888224,38.451243 86.71128,39.094669 87.94218,39.359697 C 88.292604,39.417119 89.178972,39.417119 89.616264,39.359697 C 90.730848,39.152092 91.876356,38.651485 92.870208,37.921189 C 94.043688,37.042183 94.866744,35.868703 95.131764,34.665777 C 95.189196,34.281487 95.189196,33.608614 95.102316,33.286164 C 94.837296,32.320289 94.043688,31.6695 92.870208,31.405945 C 92.549232,31.348523 91.726176,31.319076 91.375752,31.348523 z "
       style="fill:#000000;fill-rule:evenodd;stroke:#000000;stroke-width:0;stroke-linecap:butt;stroke-linejoin:round;stroke-miterlimit:10"
       id="path3471" />
  </g>
  <path
     id="path3473"
     style="fill:#000000;fill-rule:evenodd;stroke:#000000;stroke-width:0;stroke-linecap:butt;stroke-linejoin:round;stroke-miterlimit:10"
     d="M 240.04996,241.88608 C 239.90715,241.94939 239.81439,242.03626 239.75697,242.18055 C 239.69953,242.27184 239.69953,242.59429 239.69953,244.6188 L 239.69953,246.90834 L 238.52605,247.43103 L 237.35257,247.93163 L 237.3246,245.73486 C 237.3246,243.73832 237.29515,243.50274 237.26718,243.41587 C 237.03013,243.00213 236.41468,243.03158 236.23653,243.47477 C 236.17909,243.56016 236.17909,243.88261 236.17909,245.99252 L 236.17909,248.43224 L 235.44292,248.72524 C 234.97764,248.93285 234.68464,249.07567 234.65519,249.13309 C 234.47704,249.31125 234.47704,249.34069 234.47704,250.45675 C 234.47704,251.3652 234.47704,251.48005 234.53446,251.60078 C 234.62722,251.8025 234.85691,251.95121 235.09249,251.92323 C 235.17936,251.92323 235.44292,251.8025 235.67849,251.71563 L 236.15112,251.5095 C 236.17909,251.5095 236.17909,252.53868 236.17909,253.82701 L 236.17909,256.14453 L 235.44292,256.43752 C 234.97764,256.64513 234.68464,256.79384 234.65519,256.85126 C 234.47704,257.025 234.47704,257.05887 234.47704,258.16904 C 234.47704,259.07748 234.47704,259.19822 234.53446,259.31307 C 234.62722,259.52067 234.85691,259.67085 235.09249,259.63552 C 235.17936,259.63552 235.44292,259.52067 235.67849,259.4338 L 236.15112,259.22766 C 236.17909,259.22766 236.17909,260.1641 236.17909,261.3096 C 236.17909,263.09853 236.17909,263.39153 236.23653,263.48282 C 236.41468,263.94957 237.08755,263.94957 237.26718,263.48282 C 237.3246,263.39153 237.3246,263.06908 237.3246,261.04457 L 237.3246,258.69761 L 238.49661,258.19848 L 239.69953,257.70376 L 239.69953,259.92851 C 239.69953,261.92505 239.72752,262.16063 239.75697,262.21805 C 239.99254,262.66124 240.58002,262.63179 240.78615,262.1886 C 240.84357,262.10321 240.84357,261.95303 240.84357,259.63552 L 240.84357,257.20316 L 241.57386,256.91015 C 242.04649,256.70255 242.3395,256.55826 242.36748,256.50083 C 242.54563,256.32268 242.54563,256.29471 242.54563,255.17865 C 242.54563,254.27019 242.54563,254.15388 242.48821,254.03314 C 242.39692,253.82701 242.16135,253.68272 241.93165,253.71217 C 241.83889,253.71217 241.57386,253.82701 241.34418,253.9183 L 240.87301,254.12001 C 240.84357,254.12001 240.84357,253.09671 240.84357,251.8025 L 240.84357,249.4894 L 241.57386,249.19051 C 242.04649,248.99027 242.3395,248.84009 242.36748,248.78266 C 242.54563,248.60451 242.54563,248.57506 242.54563,247.46489 C 242.54563,246.55055 242.54563,246.4357 242.48821,246.32086 C 242.39692,246.11326 242.16135,245.96455 241.93165,245.99252 C 241.83889,245.99252 241.57386,246.11326 241.34418,246.20013 L 240.87301,246.40773 C 240.84357,246.40773 240.84357,245.46983 240.84357,244.35377 C 240.84357,242.41613 240.84357,242.27184 240.78615,242.15111 C 240.66541,241.88608 240.31499,241.74326 240.04996,241.88608 z M 239.69953,252.3031 L 239.69953,254.62062 L 238.5555,255.12123 C 237.94006,255.38478 237.41001,255.62183 237.38202,255.62183 C 237.3246,255.6498 237.3246,255.58649 237.3246,253.33229 L 237.3246,250.98533 L 238.49661,250.48473 L 239.69953,249.98412 L 239.69953,252.3031 z " />
  <g
     transform="matrix(0.9525362,0,0,0.9525362,161.20128,217.90354)"
     id="g3475">
    <path
       d="M 94.51026,34.309462 L 94.878348,34.309462 L 94.878348,10.60281 L 94.51026,10.60281 L 94.51026,34.309462 z "
       style="fill:#000000;fill-rule:nonzero;stroke:#000000;stroke-width:0;stroke-linecap:butt;stroke-linejoin:round;stroke-miterlimit:10"
       id="path3477" />
    <path
       d="M 94.51026,34.309462 L 94.878348,34.309462 L 94.878348,10.60281 L 94.51026,10.60281 L 94.51026,34.309462 z "
       style="fill:#000000;stroke:#000000;stroke-width:0.58674884;stroke-linecap:butt;stroke-linejoin:round;stroke-miterlimit:10"
       id="path3479" />
    <path
       d="M 91.375752,31.348523 C 90.172824,31.497233 88.943388,31.99195 87.88476,32.815006 C 86.681832,33.694011 85.86024,34.867491 85.59522,36.070419 C 85.5378,36.454708 85.5378,37.127581 85.624668,37.422055 C 85.888224,38.451243 86.71128,39.094669 87.94218,39.359697 C 88.292604,39.417119 89.178972,39.417119 89.616264,39.359697 C 90.730848,39.152092 91.876356,38.651485 92.870208,37.921189 C 94.043688,37.042183 94.866744,35.868703 95.131764,34.665777 C 95.189196,34.281487 95.189196,33.608614 95.102316,33.286164 C 94.837296,32.320289 94.043688,31.6695 92.870208,31.405945 C 92.549232,31.348523 91.726176,31.319076 91.375752,31.348523 z "
       style="fill:#000000;fill-rule:evenodd;stroke:#000000;stroke-width:0;stroke-linecap:butt;stroke-linejoin:round;stroke-miterlimit:10"
       id="path3481" />
  </g>
  <g
     transform="matrix(0.9525362,0,0,0.9525362,20.051996,231.76178)"
     id="g3483">
    <path
       d="M 94.51026,34.309462 L 94.878348,34.309462 L 94.878348,10.60281 L 94.51026,10.60281 L 94.51026,34.309462 z "
       style="fill:#000000;fill-rule:nonzero;stroke:#000000;stroke-width:0;stroke-linecap:butt;stroke-linejoin:round;stroke-miterlimit:10"
       id="path3485" />
    <path
       d="M 94.51026,34.309462 L 94.878348,34.309462 L 94.878348,10.60281 L 94.51026,10.60281 L 94.51026,34.309462 z "
       style="fill:#000000;stroke:#000000;stroke-width:0.58674884;stroke-linecap:butt;stroke-linejoin:round;stroke-miterlimit:10"
       id="path3487" />
    <path
       d="M 91.375752,31.348523 C 90.172824,31.497233 88.943388,31.99195 87.88476,32.815006 C 86.681832,33.694011 85.86024,34.867491 85.59522,36.070419 C 85.5378,36.454708 85.5378,37.127581 85.624668,37.422055 C 85.888224,38.451243 86.71128,39.094669 87.94218,39.359697 C 88.292604,39.417119 89.178972,39.417119 89.616264,39.359697 C 90.730848,39.152092 91.876356,38.651485 92.870208,37.921189 C 94.043688,37.042183 94.866744,35.868703 95.131764,34.665777 C 95.189196,34.281487 95.189196,33.608614 95.102316,33.286164 C 94.837296,32.320289 94.043688,31.6695 92.870208,31.405945 C 92.549232,31.348523 91.726176,31.319076 91.375752,31.348523 z "
       style="fill:#000000;fill-rule:evenodd;stroke:#000000;stroke-width:0;stroke-linecap:butt;stroke-linejoin:round;stroke-miterlimit:10"
       id="path3489" />
  </g>
  <path
     style="fill:none;stroke:#000000;stroke-width:1.03514063"
     id="path3491"
     d="M 97.25987,265.42817 L 114.70249,265.42817"
     sodipodi:nodetypes="cc" />
  <path
     id="path3493"
     style="fill:#000000;fill-rule:evenodd;stroke:#000000;stroke-width:0;stroke-linecap:butt;stroke-linejoin:round;stroke-miterlimit:10"
     d="M 98.089377,255.41496 C 97.946567,255.47827 97.853807,255.56514 97.796387,255.70943 C 97.738947,255.80072 97.738947,256.12317 97.738947,258.14768 L 97.738947,260.43722 L 96.565467,260.95991 L 95.391987,261.46051 L 95.364017,259.26374 C 95.364017,257.2672 95.334567,257.03162 95.306597,256.94475 C 95.069547,256.53101 94.454097,256.56046 94.275947,257.00365 C 94.218507,257.08904 94.218507,257.41149 94.218507,259.5214 L 94.218507,261.96112 L 93.482337,262.25412 C 93.017057,262.46173 92.724057,262.60455 92.694607,262.66197 C 92.516457,262.84013 92.516457,262.86957 92.516457,263.98563 C 92.516457,264.89408 92.516457,265.00893 92.573877,265.12966 C 92.666637,265.33138 92.896327,265.48009 93.131907,265.45211 C 93.218777,265.45211 93.482337,265.33138 93.717907,265.24451 L 94.190537,265.03838 C 94.218507,265.03838 94.218507,266.06756 94.218507,267.35589 L 94.218507,269.67341 L 93.482337,269.9664 C 93.017057,270.17401 92.724057,270.32272 92.694607,270.38014 C 92.516457,270.55388 92.516457,270.58775 92.516457,271.69792 C 92.516457,272.60636 92.516457,272.7271 92.573877,272.84195 C 92.666637,273.04955 92.896327,273.19973 93.131907,273.1644 C 93.218777,273.1644 93.482337,273.04955 93.717907,272.96268 L 94.190537,272.75654 C 94.218507,272.75654 94.218507,273.69298 94.218507,274.83848 C 94.218507,276.62741 94.218507,276.92041 94.275947,277.0117 C 94.454097,277.47845 95.126967,277.47845 95.306597,277.0117 C 95.364017,276.92041 95.364017,276.59796 95.364017,274.57345 L 95.364017,272.22649 L 96.536027,271.72736 L 97.738947,271.23264 L 97.738947,273.45739 C 97.738947,275.45393 97.766937,275.68951 97.796387,275.74693 C 98.031957,276.19012 98.619437,276.16067 98.825567,275.71748 C 98.882987,275.63209 98.882987,275.48191 98.882987,273.1644 L 98.882987,270.73204 L 99.613277,270.43903 C 100.08591,270.23143 100.37892,270.08714 100.4069,270.02971 C 100.58505,269.85156 100.58505,269.82359 100.58505,268.70753 C 100.58505,267.79907 100.58505,267.68276 100.52763,267.56202 C 100.43634,267.35589 100.20077,267.2116 99.971067,267.24105 C 99.878307,267.24105 99.613277,267.35589 99.383597,267.44718 L 98.912427,267.64889 C 98.882987,267.64889 98.882987,266.62559 98.882987,265.33138 L 98.882987,263.01828 L 99.613277,262.71939 C 100.08591,262.51915 100.37892,262.36897 100.4069,262.31154 C 100.58505,262.13339 100.58505,262.10394 100.58505,260.99377 C 100.58505,260.07943 100.58505,259.96458 100.52763,259.84974 C 100.43634,259.64214 100.20077,259.49343 99.971067,259.5214 C 99.878307,259.5214 99.613277,259.64214 99.383597,259.72901 L 98.912427,259.93661 C 98.882987,259.93661 98.882987,258.99871 98.882987,257.88265 C 98.882987,255.94501 98.882987,255.80072 98.825567,255.67999 C 98.704827,255.41496 98.354407,255.27214 98.089377,255.41496 z M 97.738947,265.83198 L 97.738947,268.1495 L 96.594917,268.65011 C 95.979477,268.91366 95.449427,269.15071 95.421437,269.15071 C 95.364017,269.17868 95.364017,269.11537 95.364017,266.86117 L 95.364017,264.51421 L 96.536027,264.01361 L 97.738947,263.513 L 97.738947,265.83198 z " />
  <path
     id="path3495"
     style="fill:#000000;fill-rule:evenodd;stroke:#000000;stroke-width:0;stroke-linecap:butt;stroke-linejoin:round;stroke-miterlimit:10"
     d="M 114.25397,185.07709 C 114.11116,185.1404 114.0184,185.22727 113.96098,185.37156 C 113.90354,185.46285 113.90354,185.7853 113.90354,187.80981 L 113.90354,190.09935 L 112.73006,190.62204 L 111.55658,191.12264 L 111.52861,188.92587 C 111.52861,186.92933 111.49916,186.69375 111.47119,186.60688 C 111.23414,186.19314 110.61869,186.22259 110.44054,186.66578 C 110.3831,186.75117 110.3831,187.07362 110.3831,189.18353 L 110.3831,191.62325 L 109.64693,191.91625 C 109.18165,192.12386 108.88865,192.26668 108.8592,192.3241 C 108.68105,192.50226 108.68105,192.5317 108.68105,193.64776 C 108.68105,194.55621 108.68105,194.67106 108.73847,194.79179 C 108.83123,194.99351 109.06092,195.14222 109.2965,195.11424 C 109.38337,195.11424 109.64693,194.99351 109.8825,194.90664 L 110.35513,194.70051 C 110.3831,194.70051 110.3831,195.72969 110.3831,197.01802 L 110.3831,199.33554 L 109.64693,199.62853 C 109.18165,199.83614 108.88865,199.98485 108.8592,200.04227 C 108.68105,200.21601 108.68105,200.24988 108.68105,201.36005 C 108.68105,202.26849 108.68105,202.38923 108.73847,202.50408 C 108.83123,202.71168 109.06092,202.86186 109.2965,202.82653 C 109.38337,202.82653 109.64693,202.71168 109.8825,202.62481 L 110.35513,202.41867 C 110.3831,202.41867 110.3831,203.35511 110.3831,204.50061 C 110.3831,206.28954 110.3831,206.58254 110.44054,206.67383 C 110.61869,207.14058 111.29156,207.14058 111.47119,206.67383 C 111.52861,206.58254 111.52861,206.26009 111.52861,204.23558 L 111.52861,201.88862 L 112.70062,201.38949 L 113.90354,200.89477 L 113.90354,203.11952 C 113.90354,205.11606 113.93153,205.35164 113.96098,205.40906 C 114.19655,205.85225 114.78403,205.8228 114.99016,205.37961 C 115.04758,205.29422 115.04758,205.14404 115.04758,202.82653 L 115.04758,200.39417 L 115.77787,200.10116 C 116.2505,199.89356 116.54351,199.74927 116.57149,199.69184 C 116.74964,199.51369 116.74964,199.48572 116.74964,198.36966 C 116.74964,197.4612 116.74964,197.34489 116.69222,197.22415 C 116.60093,197.01802 116.36536,196.87373 116.13566,196.90318 C 116.0429,196.90318 115.77787,197.01802 115.54819,197.10931 L 115.07702,197.31102 C 115.04758,197.31102 115.04758,196.28772 115.04758,194.99351 L 115.04758,192.68041 L 115.77787,192.38152 C 116.2505,192.18128 116.54351,192.0311 116.57149,191.97367 C 116.74964,191.79552 116.74964,191.76607 116.74964,190.6559 C 116.74964,189.74156 116.74964,189.62671 116.69222,189.51187 C 116.60093,189.30427 116.36536,189.15556 116.13566,189.18353 C 116.0429,189.18353 115.77787,189.30427 115.54819,189.39114 L 115.07702,189.59874 C 115.04758,189.59874 115.04758,188.66084 115.04758,187.54478 C 115.04758,185.60714 115.04758,185.46285 114.99016,185.34212 C 114.86942,185.07709 114.519,184.93427 114.25397,185.07709 z M 113.90354,195.49411 L 113.90354,197.81163 L 112.75951,198.31224 C 112.14407,198.57579 111.61402,198.81284 111.58603,198.81284 C 111.52861,198.84081 111.52861,198.7775 111.52861,196.5233 L 111.52861,194.17634 L 112.70062,193.67574 L 113.90354,193.17513 L 113.90354,195.49411 z " />
  <path
     id="path3497"
     style="fill:#000000;fill-rule:evenodd;stroke:#000000;stroke-width:0;stroke-linecap:butt;stroke-linejoin:round;stroke-miterlimit:10"
     d="M 153.57328,154.4954 C 153.43047,154.55871 153.33771,154.64558 153.28029,154.78987 C 153.22285,154.88116 153.22285,155.20361 153.22285,157.22812 L 153.22285,159.51766 L 152.04937,160.04035 L 150.87589,160.54095 L 150.84792,158.34418 C 150.84792,156.34764 150.81847,156.11206 150.7905,156.02519 C 150.55345,155.61145 149.938,155.6409 149.75985,156.08409 C 149.70241,156.16948 149.70241,156.49193 149.70241,158.60184 L 149.70241,161.04156 L 148.96624,161.33456 C 148.50096,161.54217 148.20796,161.68499 148.17851,161.74241 C 148.00036,161.92057 148.00036,161.95001 148.00036,163.06607 C 148.00036,163.97452 148.00036,164.08937 148.05778,164.2101 C 148.15054,164.41182 148.38023,164.56053 148.61581,164.53255 C 148.70268,164.53255 148.96624,164.41182 149.20181,164.32495 L 149.67444,164.11882 C 149.70241,164.11882 149.70241,165.148 149.70241,166.43633 L 149.70241,168.75385 L 148.96624,169.04684 C 148.50096,169.25445 148.20796,169.40316 148.17851,169.46058 C 148.00036,169.63432 148.00036,169.66819 148.00036,170.77836 C 148.00036,171.6868 148.00036,171.80754 148.05778,171.92239 C 148.15054,172.12999 148.38023,172.28017 148.61581,172.24484 C 148.70268,172.24484 148.96624,172.12999 149.20181,172.04312 L 149.67444,171.83698 C 149.70241,171.83698 149.70241,172.77342 149.70241,173.91892 C 149.70241,175.70785 149.70241,176.00085 149.75985,176.09214 C 149.938,176.55889 150.61087,176.55889 150.7905,176.09214 C 150.84792,176.00085 150.84792,175.6784 150.84792,173.65389 L 150.84792,171.30693 L 152.01993,170.8078 L 153.22285,170.31308 L 153.22285,172.53783 C 153.22285,174.53437 153.25084,174.76995 153.28029,174.82737 C 153.51586,175.27056 154.10334,175.24111 154.30947,174.79792 C 154.36689,174.71253 154.36689,174.56235 154.36689,172.24484 L 154.36689,169.81248 L 155.09718,169.51947 C 155.56981,169.31187 155.86282,169.16758 155.8908,169.11015 C 156.06895,168.932 156.06895,168.90403 156.06895,167.78797 C 156.06895,166.87951 156.06895,166.7632 156.01153,166.64246 C 155.92024,166.43633 155.68467,166.29204 155.45497,166.32149 C 155.36221,166.32149 155.09718,166.43633 154.8675,166.52762 L 154.39633,166.72933 C 154.36689,166.72933 154.36689,165.70603 154.36689,164.41182 L 154.36689,162.09872 L 155.09718,161.79983 C 155.56981,161.59959 155.86282,161.44941 155.8908,161.39198 C 156.06895,161.21383 156.06895,161.18438 156.06895,160.07421 C 156.06895,159.15987 156.06895,159.04502 156.01153,158.93018 C 155.92024,158.72258 155.68467,158.57387 155.45497,158.60184 C 155.36221,158.60184 155.09718,158.72258 154.8675,158.80945 L 154.39633,159.01705 C 154.36689,159.01705 154.36689,158.07915 154.36689,156.96309 C 154.36689,155.02545 154.36689,154.88116 154.30947,154.76043 C 154.18873,154.4954 153.83831,154.35258 153.57328,154.4954 z M 153.22285,164.91242 L 153.22285,167.22994 L 152.07882,167.73055 C 151.46338,167.9941 150.93333,168.23115 150.90534,168.23115 C 150.84792,168.25912 150.84792,168.19581 150.84792,165.94161 L 150.84792,163.59465 L 152.01993,163.09405 L 153.22285,162.59344 L 153.22285,164.91242 z " />
  <path
     id="path3499"
     style="fill:#000000;fill-rule:evenodd;stroke:#000000;stroke-width:0;stroke-linecap:butt;stroke-linejoin:round;stroke-miterlimit:10"
     d="M 212.11536,112.99169 C 211.97255,113.055 211.87979,113.14187 211.82237,113.28616 C 211.76493,113.37745 211.76493,113.6999 211.76493,115.72441 L 211.76493,118.01395 L 210.59145,118.53664 L 209.41797,119.03724 L 209.39,116.84047 C 209.39,114.84393 209.36055,114.60835 209.33258,114.52148 C 209.09553,114.10774 208.48008,114.13719 208.30193,114.58038 C 208.24449,114.66577 208.24449,114.98822 208.24449,117.09813 L 208.24449,119.53785 L 207.50832,119.83085 C 207.04304,120.03846 206.75004,120.18128 206.72059,120.2387 C 206.54244,120.41686 206.54244,120.4463 206.54244,121.56236 C 206.54244,122.47081 206.54244,122.58566 206.59986,122.70639 C 206.69262,122.90811 206.92231,123.05682 207.15789,123.02884 C 207.24476,123.02884 207.50832,122.90811 207.74389,122.82124 L 208.21652,122.61511 C 208.24449,122.61511 208.24449,123.64429 208.24449,124.93262 L 208.24449,127.25014 L 207.50832,127.54313 C 207.04304,127.75074 206.75004,127.89945 206.72059,127.95687 C 206.54244,128.13061 206.54244,128.16448 206.54244,129.27465 C 206.54244,130.18309 206.54244,130.30383 206.59986,130.41868 C 206.69262,130.62628 206.92231,130.77646 207.15789,130.74113 C 207.24476,130.74113 207.50832,130.62628 207.74389,130.53941 L 208.21652,130.33327 C 208.24449,130.33327 208.24449,131.26971 208.24449,132.41521 C 208.24449,134.20414 208.24449,134.49714 208.30193,134.58843 C 208.48008,135.05518 209.15295,135.05518 209.33258,134.58843 C 209.39,134.49714 209.39,134.17469 209.39,132.15018 L 209.39,129.80322 L 210.56201,129.30409 L 211.76493,128.80937 L 211.76493,131.03412 C 211.76493,133.03066 211.79292,133.26624 211.82237,133.32366 C 212.05794,133.76685 212.64542,133.7374 212.85155,133.29421 C 212.90897,133.20882 212.90897,133.05864 212.90897,130.74113 L 212.90897,128.30877 L 213.63926,128.01576 C 214.11189,127.80816 214.4049,127.66387 214.43288,127.60644 C 214.61103,127.42829 214.61103,127.40032 214.61103,126.28426 C 214.61103,125.3758 214.61103,125.25949 214.55361,125.13875 C 214.46232,124.93262 214.22675,124.78833 213.99705,124.81778 C 213.90429,124.81778 213.63926,124.93262 213.40958,125.02391 L 212.93841,125.22562 C 212.90897,125.22562 212.90897,124.20232 212.90897,122.90811 L 212.90897,120.59501 L 213.63926,120.29612 C 214.11189,120.09588 214.4049,119.9457 214.43288,119.88827 C 214.61103,119.71012 214.61103,119.68067 214.61103,118.5705 C 214.61103,117.65616 214.61103,117.54131 214.55361,117.42647 C 214.46232,117.21887 214.22675,117.07016 213.99705,117.09813 C 213.90429,117.09813 213.63926,117.21887 213.40958,117.30574 L 212.93841,117.51334 C 212.90897,117.51334 212.90897,116.57544 212.90897,115.45938 C 212.90897,113.52174 212.90897,113.37745 212.85155,113.25672 C 212.73081,112.99169 212.38039,112.84887 212.11536,112.99169 z M 211.76493,123.40871 L 211.76493,125.72623 L 210.6209,126.22684 C 210.00546,126.49039 209.47541,126.72744 209.44742,126.72744 C 209.39,126.75541 209.39,126.6921 209.39,124.4379 L 209.39,122.09094 L 210.56201,121.59034 L 211.76493,121.08973 L 211.76493,123.40871 z " />
  <path
     id="path3501"
     style="fill:#000000;fill-rule:evenodd;stroke:#000000;stroke-width:0;stroke-linecap:butt;stroke-linejoin:round;stroke-miterlimit:10"
     d="M 252.74532,85.031287 C 252.60251,85.094597 252.50975,85.181467 252.45233,85.325757 C 252.39489,85.417047 252.39489,85.739497 252.39489,87.764007 L 252.39489,90.053547 L 251.22141,90.576237 L 250.04793,91.076837 L 250.01996,88.880067 C 250.01996,86.883527 249.99051,86.647947 249.96254,86.561077 C 249.72549,86.147337 249.11004,86.176787 248.93189,86.619977 C 248.87445,86.705367 248.87445,87.027817 248.87445,89.137727 L 248.87445,91.577447 L 248.13828,91.870447 C 247.673,92.078057 247.38,92.220877 247.35055,92.278297 C 247.1724,92.456457 247.1724,92.485897 247.1724,93.601957 C 247.1724,94.510407 247.1724,94.625257 247.22982,94.745987 C 247.32258,94.947707 247.55227,95.096417 247.78785,95.068437 C 247.87472,95.068437 248.13828,94.947707 248.37385,94.860837 L 248.84648,94.654707 C 248.87445,94.654707 248.87445,95.683887 248.87445,96.972217 L 248.87445,99.289737 L 248.13828,99.582727 C 247.673,99.790337 247.38,99.939047 247.35055,99.996467 C 247.1724,100.17021 247.1724,100.20408 247.1724,101.31425 C 247.1724,102.22269 247.1724,102.34343 247.22982,102.45828 C 247.32258,102.66588 247.55227,102.81606 247.78785,102.78073 C 247.87472,102.78073 248.13828,102.66588 248.37385,102.57901 L 248.84648,102.37287 C 248.87445,102.37287 248.87445,103.30931 248.87445,104.45481 C 248.87445,106.24374 248.87445,106.53674 248.93189,106.62803 C 249.11004,107.09478 249.78291,107.09478 249.96254,106.62803 C 250.01996,106.53674 250.01996,106.21429 250.01996,104.18978 L 250.01996,101.84282 L 251.19197,101.34369 L 252.39489,100.84897 L 252.39489,103.07372 C 252.39489,105.07026 252.42288,105.30584 252.45233,105.36326 C 252.6879,105.80645 253.27538,105.777 253.48151,105.33381 C 253.53893,105.24842 253.53893,105.09824 253.53893,102.78073 L 253.53893,100.34837 L 254.26922,100.05536 C 254.74185,99.847757 255.03486,99.703467 255.06284,99.646037 C 255.24099,99.467887 255.24099,99.439917 255.24099,98.323857 C 255.24099,97.415397 255.24099,97.299087 255.18357,97.178347 C 255.09228,96.972217 254.85671,96.827927 254.62701,96.857377 C 254.53425,96.857377 254.26922,96.972217 254.03954,97.063507 L 253.56837,97.265217 C 253.53893,97.265217 253.53893,96.241917 253.53893,94.947707 L 253.53893,92.634607 L 254.26922,92.335717 C 254.74185,92.135477 255.03486,91.985297 255.06284,91.927867 C 255.24099,91.749717 255.24099,91.720267 255.24099,90.610097 C 255.24099,89.695757 255.24099,89.580907 255.18357,89.466067 C 255.09228,89.258467 254.85671,89.109757 254.62701,89.137727 C 254.53425,89.137727 254.26922,89.258467 254.03954,89.345337 L 253.56837,89.552937 C 253.53893,89.552937 253.53893,88.615037 253.53893,87.498977 C 253.53893,85.561337 253.53893,85.417047 253.48151,85.296317 C 253.36077,85.031287 253.01035,84.888467 252.74532,85.031287 z M 252.39489,95.448307 L 252.39489,97.765827 L 251.25086,98.266437 C 250.63542,98.529987 250.10537,98.767037 250.07738,98.767037 C 250.01996,98.795007 250.01996,98.731697 250.01996,96.477497 L 250.01996,94.130537 L 251.19197,93.629937 L 252.39489,93.129327 L 252.39489,95.448307 z " />
  <path
     id="path3503"
     style="fill:#000000;fill-rule:evenodd;stroke:#000000;stroke-width:0;stroke-linecap:butt;stroke-linejoin:round;stroke-miterlimit:10"
     d="M 292.9384,56.634009 C 292.79559,56.697319 292.70283,56.784189 292.64541,56.928479 C 292.58797,57.019769 292.58797,57.342219 292.58797,59.366729 L 292.58797,61.656269 L 291.41449,62.178959 L 290.24101,62.679559 L 290.21304,60.482789 C 290.21304,58.486249 290.18359,58.250669 290.15562,58.163799 C 289.91857,57.750059 289.30312,57.779509 289.12497,58.222699 C 289.06753,58.308089 289.06753,58.630539 289.06753,60.740449 L 289.06753,63.180169 L 288.33136,63.473169 C 287.86608,63.680779 287.57308,63.823599 287.54363,63.881019 C 287.36548,64.059179 287.36548,64.088619 287.36548,65.204679 C 287.36548,66.113129 287.36548,66.227979 287.4229,66.348709 C 287.51566,66.550429 287.74535,66.699139 287.98093,66.671159 C 288.0678,66.671159 288.33136,66.550429 288.56693,66.463559 L 289.03956,66.257429 C 289.06753,66.257429 289.06753,67.286609 289.06753,68.574939 L 289.06753,70.892456 L 288.33136,71.185446 C 287.86608,71.393056 287.57308,71.541766 287.54363,71.599186 C 287.36548,71.772926 287.36548,71.806796 287.36548,72.916966 C 287.36548,73.825406 287.36548,73.946146 287.4229,74.060996 C 287.51566,74.268596 287.74535,74.418776 287.98093,74.383446 C 288.0678,74.383446 288.33136,74.268596 288.56693,74.181726 L 289.03956,73.975586 C 289.06753,73.975586 289.06753,74.912026 289.06753,76.057526 C 289.06753,77.846456 289.06753,78.139456 289.12497,78.230746 C 289.30312,78.697496 289.97599,78.697496 290.15562,78.230746 C 290.21304,78.139456 290.21304,77.817006 290.21304,75.792496 L 290.21304,73.445536 L 291.38505,72.946406 L 292.58797,72.451686 L 292.58797,74.676436 C 292.58797,76.672976 292.61596,76.908556 292.64541,76.965976 C 292.88098,77.409166 293.46846,77.379716 293.67459,76.936526 C 293.73201,76.851136 293.73201,76.700956 293.73201,74.383446 L 293.73201,71.951086 L 294.4623,71.658076 C 294.93493,71.450476 295.22794,71.306186 295.25592,71.248756 C 295.43407,71.070606 295.43407,71.042636 295.43407,69.926576 C 295.43407,69.018119 295.43407,68.901809 295.37665,68.781069 C 295.28536,68.574939 295.04979,68.430649 294.82009,68.460099 C 294.72733,68.460099 294.4623,68.574939 294.23262,68.666229 L 293.76145,68.867939 C 293.73201,68.867939 293.73201,67.844639 293.73201,66.550429 L 293.73201,64.237329 L 294.4623,63.938439 C 294.93493,63.738199 295.22794,63.588019 295.25592,63.530589 C 295.43407,63.352439 295.43407,63.322989 295.43407,62.212819 C 295.43407,61.298479 295.43407,61.183629 295.37665,61.068789 C 295.28536,60.861189 295.04979,60.712479 294.82009,60.740449 C 294.72733,60.740449 294.4623,60.861189 294.23262,60.948059 L 293.76145,61.155659 C 293.73201,61.155659 293.73201,60.217759 293.73201,59.101699 C 293.73201,57.164059 293.73201,57.019769 293.67459,56.899039 C 293.55385,56.634009 293.20343,56.491189 292.9384,56.634009 z M 292.58797,67.051029 L 292.58797,69.368549 L 291.44394,69.869156 C 290.8285,70.132706 290.29845,70.369756 290.27046,70.369756 C 290.21304,70.397726 290.21304,70.334416 290.21304,68.080219 L 290.21304,65.733259 L 291.38505,65.232659 L 292.58797,64.732049 L 292.58797,67.051029 z " />
  <path
     id="path3505"
     style="fill:#000000;fill-rule:evenodd;stroke:#000000;stroke-width:0;stroke-linecap:butt;stroke-linejoin:round;stroke-miterlimit:10"
     d="M 278.22306,236.66546 C 278.08025,236.72877 277.98749,236.81564 277.93007,236.95993 C 277.87263,237.05122 277.87263,237.37367 277.87263,239.39818 L 277.87263,241.68772 L 276.69915,242.21041 L 275.52567,242.71101 L 275.4977,240.51424 C 275.4977,238.5177 275.46825,238.28212 275.44028,238.19525 C 275.20323,237.78151 274.58778,237.81096 274.40963,238.25415 C 274.35219,238.33954 274.35219,238.66199 274.35219,240.7719 L 274.35219,243.21162 L 273.61602,243.50462 C 273.15074,243.71223 272.85774,243.85505 272.82829,243.91247 C 272.65014,244.09063 272.65014,244.12007 272.65014,245.23613 C 272.65014,246.14458 272.65014,246.25943 272.70756,246.38016 C 272.80032,246.58188 273.03001,246.73059 273.26559,246.70261 C 273.35246,246.70261 273.61602,246.58188 273.85159,246.49501 L 274.32422,246.28888 C 274.35219,246.28888 274.35219,247.31806 274.35219,248.60639 L 274.35219,250.92391 L 273.61602,251.2169 C 273.15074,251.42451 272.85774,251.57322 272.82829,251.63064 C 272.65014,251.80438 272.65014,251.83825 272.65014,252.94842 C 272.65014,253.85686 272.65014,253.9776 272.70756,254.09245 C 272.80032,254.30005 273.03001,254.45023 273.26559,254.4149 C 273.35246,254.4149 273.61602,254.30005 273.85159,254.21318 L 274.32422,254.00704 C 274.35219,254.00704 274.35219,254.94348 274.35219,256.08898 C 274.35219,257.87791 274.35219,258.17091 274.40963,258.2622 C 274.58778,258.72895 275.26065,258.72895 275.44028,258.2622 C 275.4977,258.17091 275.4977,257.84846 275.4977,255.82395 L 275.4977,253.47699 L 276.66971,252.97786 L 277.87263,252.48314 L 277.87263,254.70789 C 277.87263,256.70443 277.90062,256.94001 277.93007,256.99743 C 278.16564,257.44062 278.75312,257.41117 278.95925,256.96798 C 279.01667,256.88259 279.01667,256.73241 279.01667,254.4149 L 279.01667,251.98254 L 279.74696,251.68953 C 280.21959,251.48193 280.5126,251.33764 280.54058,251.28021 C 280.71873,251.10206 280.71873,251.07409 280.71873,249.95803 C 280.71873,249.04957 280.71873,248.93326 280.66131,248.81252 C 280.57002,248.60639 280.33445,248.4621 280.10475,248.49155 C 280.01199,248.49155 279.74696,248.60639 279.51728,248.69768 L 279.04611,248.89939 C 279.01667,248.89939 279.01667,247.87609 279.01667,246.58188 L 279.01667,244.26878 L 279.74696,243.96989 C 280.21959,243.76965 280.5126,243.61947 280.54058,243.56204 C 280.71873,243.38389 280.71873,243.35444 280.71873,242.24427 C 280.71873,241.32993 280.71873,241.21508 280.66131,241.10024 C 280.57002,240.89264 280.33445,240.74393 280.10475,240.7719 C 280.01199,240.7719 279.74696,240.89264 279.51728,240.97951 L 279.04611,241.18711 C 279.01667,241.18711 279.01667,240.24921 279.01667,239.13315 C 279.01667,237.19551 279.01667,237.05122 278.95925,236.93049 C 278.83851,236.66546 278.48809,236.52264 278.22306,236.66546 z M 277.87263,247.08248 L 277.87263,249.4 L 276.7286,249.90061 C 276.11316,250.16416 275.58311,250.40121 275.55512,250.40121 C 275.4977,250.42918 275.4977,250.36587 275.4977,248.11167 L 275.4977,245.76471 L 276.66971,245.26411 L 277.87263,244.7635 L 277.87263,247.08248 z " />
  <g
     transform="matrix(0.9525362,0,0,0.9525362,177.96718,214.79238)"
     id="g3507">
    <path
       d="M 94.51026,34.309462 L 94.878348,34.309462 L 94.878348,10.60281 L 94.51026,10.60281 L 94.51026,34.309462 z "
       style="fill:#000000;fill-rule:nonzero;stroke:#000000;stroke-width:0;stroke-linecap:butt;stroke-linejoin:round;stroke-miterlimit:10"
       id="path3509" />
    <path
       d="M 94.51026,34.309462 L 94.878348,34.309462 L 94.878348,10.60281 L 94.51026,10.60281 L 94.51026,34.309462 z "
       style="fill:#000000;stroke:#000000;stroke-width:0.58674884;stroke-linecap:butt;stroke-linejoin:round;stroke-miterlimit:10"
       id="path3511" />
    <path
       d="M 91.375752,31.348523 C 90.172824,31.497233 88.943388,31.99195 87.88476,32.815006 C 86.681832,33.694011 85.86024,34.867491 85.59522,36.070419 C 85.5378,36.454708 85.5378,37.127581 85.624668,37.422055 C 85.888224,38.451243 86.71128,39.094669 87.94218,39.359697 C 88.292604,39.417119 89.178972,39.417119 89.616264,39.359697 C 90.730848,39.152092 91.876356,38.651485 92.870208,37.921189 C 94.043688,37.042183 94.866744,35.868703 95.131764,34.665777 C 95.189196,34.281487 95.189196,33.608614 95.102316,33.286164 C 94.837296,32.320289 94.043688,31.6695 92.870208,31.405945 C 92.549232,31.348523 91.726176,31.319076 91.375752,31.348523 z "
       style="fill:#000000;fill-rule:evenodd;stroke:#000000;stroke-width:0;stroke-linecap:butt;stroke-linejoin:round;stroke-miterlimit:10"
       id="path3513" />
  </g>
  <g
     transform="matrix(0.9525362,0,0,0.9525362,200.30114,213.60969)"
     id="g3515">
    <path
       d="M 94.51026,34.309462 L 94.878348,34.309462 L 94.878348,10.60281 L 94.51026,10.60281 L 94.51026,34.309462 z "
       style="fill:#000000;fill-rule:nonzero;stroke:#000000;stroke-width:0;stroke-linecap:butt;stroke-linejoin:round;stroke-miterlimit:10"
       id="path3517" />
    <path
       d="M 94.51026,34.309462 L 94.878348,34.309462 L 94.878348,10.60281 L 94.51026,10.60281 L 94.51026,34.309462 z "
       style="fill:#000000;stroke:#000000;stroke-width:0.58674884;stroke-linecap:butt;stroke-linejoin:round;stroke-miterlimit:10"
       id="path3519" />
    <path
       d="M 91.375752,31.348523 C 90.172824,31.497233 88.943388,31.99195 87.88476,32.815006 C 86.681832,33.694011 85.86024,34.867491 85.59522,36.070419 C 85.5378,36.454708 85.5378,37.127581 85.624668,37.422055 C 85.888224,38.451243 86.71128,39.094669 87.94218,39.359697 C 88.292604,39.417119 89.178972,39.417119 89.616264,39.359697 C 90.730848,39.152092 91.876356,38.651485 92.870208,37.921189 C 94.043688,37.042183 94.866744,35.868703 95.131764,34.665777 C 95.189196,34.281487 95.189196,33.608614 95.102316,33.286164 C 94.837296,32.320289 94.043688,31.6695 92.870208,31.405945 C 92.549232,31.348523 91.726176,31.319076 91.375752,31.348523 z "
       style="fill:#000000;fill-rule:evenodd;stroke:#000000;stroke-width:0;stroke-linecap:butt;stroke-linejoin:round;stroke-miterlimit:10"
       id="path3521" />
  </g>
  <g
     transform="matrix(0.9525362,0,0,0.9525362,240.02329,207.76736)"
     id="g3523">
    <path
       d="M 94.51026,34.309462 L 94.878348,34.309462 L 94.878348,10.60281 L 94.51026,10.60281 L 94.51026,34.309462 z "
       style="fill:#000000;fill-rule:nonzero;stroke:#000000;stroke-width:0;stroke-linecap:butt;stroke-linejoin:round;stroke-miterlimit:10"
       id="path3525" />
    <path
       d="M 94.51026,34.309462 L 94.878348,34.309462 L 94.878348,10.60281 L 94.51026,10.60281 L 94.51026,34.309462 z "
       style="fill:#000000;stroke:#000000;stroke-width:0.58674884;stroke-linecap:butt;stroke-linejoin:round;stroke-miterlimit:10"
       id="path3527" />
    <path
       d="M 91.375752,31.348523 C 90.172824,31.497233 88.943388,31.99195 87.88476,32.815006 C 86.681832,33.694011 85.86024,34.867491 85.59522,36.070419 C 85.5378,36.454708 85.5378,37.127581 85.624668,37.422055 C 85.888224,38.451243 86.71128,39.094669 87.94218,39.359697 C 88.292604,39.417119 89.178972,39.417119 89.616264,39.359697 C 90.730848,39.152092 91.876356,38.651485 92.870208,37.921189 C 94.043688,37.042183 94.866744,35.868703 95.131764,34.665777 C 95.189196,34.281487 95.189196,33.608614 95.102316,33.286164 C 94.837296,32.320289 94.043688,31.6695 92.870208,31.405945 C 92.549232,31.348523 91.726176,31.319076 91.375752,31.348523 z "
       style="fill:#000000;fill-rule:evenodd;stroke:#000000;stroke-width:0;stroke-linecap:butt;stroke-linejoin:round;stroke-miterlimit:10"
       id="path3529" />
  </g>
  <g
     transform="matrix(0.9525362,0,0,0.9525362,220.17923,210.57304)"
     id="g3531">
    <path
       d="M 94.51026,34.309462 L 94.878348,34.309462 L 94.878348,10.60281 L 94.51026,10.60281 L 94.51026,34.309462 z "
       style="fill:#000000;fill-rule:nonzero;stroke:#000000;stroke-width:0;stroke-linecap:butt;stroke-linejoin:round;stroke-miterlimit:10"
       id="path3533" />
    <path
       d="M 94.51026,34.309462 L 94.878348,34.309462 L 94.878348,10.60281 L 94.51026,10.60281 L 94.51026,34.309462 z "
       style="fill:#000000;stroke:#000000;stroke-width:0.58674884;stroke-linecap:butt;stroke-linejoin:round;stroke-miterlimit:10"
       id="path3535" />
    <path
       d="M 91.375752,31.348523 C 90.172824,31.497233 88.943388,31.99195 87.88476,32.815006 C 86.681832,33.694011 85.86024,34.867491 85.59522,36.070419 C 85.5378,36.454708 85.5378,37.127581 85.624668,37.422055 C 85.888224,38.451243 86.71128,39.094669 87.94218,39.359697 C 88.292604,39.417119 89.178972,39.417119 89.616264,39.359697 C 90.730848,39.152092 91.876356,38.651485 92.870208,37.921189 C 94.043688,37.042183 94.866744,35.868703 95.131764,34.665777 C 95.189196,34.281487 95.189196,33.608614 95.102316,33.286164 C 94.837296,32.320289 94.043688,31.6695 92.870208,31.405945 C 92.549232,31.348523 91.726176,31.319076 91.375752,31.348523 z "
       style="fill:#000000;fill-rule:evenodd;stroke:#000000;stroke-width:0;stroke-linecap:butt;stroke-linejoin:round;stroke-miterlimit:10"
       id="path3537" />
  </g>
  <text
     xml:space="preserve"
     style="font-size:15.10085583px;font-style:normal;font-variant:normal;font-weight:normal;font-stretch:normal;text-align:start;line-height:125%;writing-mode:lr-tb;text-anchor:start;fill:#000000;fill-opacity:1;stroke:none;stroke-width:1px;stroke-linecap:butt;stroke-linejoin:miter;stroke-opacity:1;font-family:Arial"
     x="72.753502"
     y="227.62964"
     id="text3557"
     sodipodi:linespacing="125%"
     transform="scale(1.0651828,0.938806)"><tspan
       sodipodi:role="line"
       id="tspan3559"
       x="72.753502"
       y="227.62964">C4</tspan></text>
  <text
     xml:space="preserve"
     style="font-size:15.10085583px;font-style:normal;font-variant:normal;font-weight:normal;font-stretch:normal;text-align:start;line-height:125%;writing-mode:lr-tb;text-anchor:start;fill:#000000;fill-opacity:1;stroke:none;stroke-width:1px;stroke-linecap:butt;stroke-linejoin:miter;stroke-opacity:1;font-family:Arial"
     x="296.30283"
     y="48.071369"
     id="text3561"
     sodipodi:linespacing="125%"
     transform="scale(1.0651828,0.938806)"><tspan
       sodipodi:role="line"
       id="tspan3563"
       x="296.30283"
       y="48.071369">C5</tspan></text>
  <text
     xml:space="preserve"
     style="font-size:4px;font-style:normal;font-variant:normal;font-weight:normal;font-stretch:normal;text-align:start;line-height:125%;writing-mode:lr-tb;text-anchor:start;fill:#000000;fill-opacity:1;stroke:none;stroke-width:1px;stroke-linecap:butt;stroke-linejoin:miter;stroke-opacity:1;font-family:Arial"
     x="160.3354"
     y="61.462856"
     id="text3565"
     sodipodi:linespacing="125%"><tspan
       sodipodi:role="line"
       id="tspan3567"
       x="160.3354"
       y="61.462856" /></text>
  <text
     transform="scale(1.0651828,0.938806)"
     sodipodi:linespacing="125%"
     id="text3569"
     y="197.91676"
     x="114.60783"
     style="font-size:15.10085583px;font-style:normal;font-variant:normal;font-weight:normal;font-stretch:normal;text-align:start;line-height:125%;writing-mode:lr-tb;text-anchor:start;fill:#000000;fill-opacity:1;stroke:none;stroke-width:1px;stroke-linecap:butt;stroke-linejoin:miter;stroke-opacity:1;font-family:Arial"
     xml:space="preserve"><tspan
       y="197.91676"
       x="114.60783"
       id="tspan3571"
       sodipodi:role="line">D</tspan></text>
  <text
     xml:space="preserve"
     style="font-size:15.10085583px;font-style:normal;font-variant:normal;font-weight:normal;font-stretch:normal;text-align:start;line-height:125%;writing-mode:lr-tb;text-anchor:start;fill:#000000;fill-opacity:1;stroke:none;stroke-width:1px;stroke-linecap:butt;stroke-linejoin:miter;stroke-opacity:1;font-family:Arial"
     x="126.91222"
     y="183.49066"
     id="text3573"
     sodipodi:linespacing="125%"
     transform="scale(1.0651828,0.938806)"><tspan
       sodipodi:role="line"
       id="tspan3575"
       x="126.91222"
       y="183.49066">D</tspan></text>
  <text
     xml:space="preserve"
     style="font-size:15.10085583px;font-style:normal;font-variant:normal;font-weight:normal;font-stretch:normal;text-align:start;line-height:125%;writing-mode:lr-tb;text-anchor:start;fill:#000000;fill-opacity:1;stroke:none;stroke-width:1px;stroke-linecap:butt;stroke-linejoin:miter;stroke-opacity:1;font-family:Arial"
     x="89.999039"
     y="215.13503"
     id="text3581"
     sodipodi:linespacing="125%"
     transform="scale(1.0651828,0.938806)"><tspan
       sodipodi:role="line"
       id="tspan3583"
       x="89.999039"
       y="215.13503">C</tspan></text>
  <text
     xml:space="preserve"
     style="font-size:15.10085583px;font-style:normal;font-variant:normal;font-weight:normal;font-stretch:normal;text-align:start;line-height:125%;writing-mode:lr-tb;text-anchor:start;fill:#000000;fill-opacity:1;stroke:none;stroke-width:1px;stroke-linecap:butt;stroke-linejoin:miter;stroke-opacity:1;font-family:Arial"
     x="151.1109"
     y="166.73775"
     id="text3585"
     sodipodi:linespacing="125%"
     transform="scale(1.0651828,0.938806)"><tspan
       sodipodi:role="line"
       id="tspan3587"
       x="151.1109"
       y="166.73775">E</tspan></text>
  <text
     xml:space="preserve"
     style="font-size:15.10085583px;font-style:normal;font-variant:normal;font-weight:normal;font-stretch:normal;text-align:start;line-height:125%;writing-mode:lr-tb;text-anchor:start;fill:#000000;fill-opacity:1;stroke:none;stroke-width:1px;stroke-linecap:butt;stroke-linejoin:miter;stroke-opacity:1;font-family:Arial"
     x="183.51248"
     y="139.2816"
     id="text3589"
     sodipodi:linespacing="125%"
     transform="scale(1.0651828,0.938806)"><tspan
       sodipodi:role="line"
       id="tspan3591"
       x="183.51248"
       y="139.2816">F</tspan></text>
  <text
     xml:space="preserve"
     style="font-size:15.10085583px;font-style:normal;font-variant:normal;font-weight:normal;font-stretch:normal;text-align:start;line-height:125%;writing-mode:lr-tb;text-anchor:start;fill:#000000;fill-opacity:1;stroke:none;stroke-width:1px;stroke-linecap:butt;stroke-linejoin:miter;stroke-opacity:1;font-family:Arial"
     x="220.01555"
     y="109.03331"
     id="text3593"
     sodipodi:linespacing="125%"
     transform="scale(1.0651828,0.938806)"><tspan
       sodipodi:role="line"
       id="tspan3595"
       x="220.01555"
       y="109.03331">G</tspan></text>
  <text
     transform="scale(1.0651828,0.938806)"
     sodipodi:linespacing="125%"
     id="text3597"
     y="151.38092"
     x="170.79793"
     style="font-size:15.10085583px;font-style:normal;font-variant:normal;font-weight:normal;font-stretch:normal;text-align:start;line-height:125%;writing-mode:lr-tb;text-anchor:start;fill:#000000;fill-opacity:1;stroke:none;stroke-width:1px;stroke-linecap:butt;stroke-linejoin:miter;stroke-opacity:1;font-family:Arial"
     xml:space="preserve"><tspan
       y="151.38092"
       x="170.79793"
       id="tspan3599"
       sodipodi:role="line">F</tspan></text>
  <text
     transform="scale(1.0651828,0.938806)"
     sodipodi:linespacing="125%"
     id="text3601"
     y="123.45942"
     x="205.66042"
     style="font-size:15.10085583px;font-style:normal;font-variant:normal;font-weight:normal;font-stretch:normal;text-align:start;line-height:125%;writing-mode:lr-tb;text-anchor:start;fill:#000000;fill-opacity:1;stroke:none;stroke-width:1px;stroke-linecap:butt;stroke-linejoin:miter;stroke-opacity:1;font-family:Arial"
     xml:space="preserve"><tspan
       y="123.45942"
       x="205.66042"
       id="tspan3603"
       sodipodi:role="line">G</tspan></text>
  <text
     xml:space="preserve"
     style="font-size:15.10085583px;font-style:normal;font-variant:normal;font-weight:normal;font-stretch:normal;text-align:start;line-height:125%;writing-mode:lr-tb;text-anchor:start;fill:#000000;fill-opacity:1;stroke:none;stroke-width:1px;stroke-linecap:butt;stroke-linejoin:miter;stroke-opacity:1;font-family:Arial"
     x="244.2142"
     y="94.607201"
     id="text3605"
     sodipodi:linespacing="125%"
     transform="scale(1.0651828,0.938806)"><tspan
       sodipodi:role="line"
       id="tspan3607"
       x="244.2142"
       y="94.607201">A</tspan></text>
  <text
     xml:space="preserve"
     style="font-size:15.10085583px;font-style:normal;font-variant:normal;font-weight:normal;font-stretch:normal;text-align:start;line-height:125%;writing-mode:lr-tb;text-anchor:start;fill:#000000;fill-opacity:1;stroke:none;stroke-width:1px;stroke-linecap:butt;stroke-linejoin:miter;stroke-opacity:1;font-family:Arial"
     x="258.97946"
     y="78.785019"
     id="text3609"
     sodipodi:linespacing="125%"
     transform="scale(1.0651828,0.938806)"><tspan
       sodipodi:role="line"
       id="tspan3611"
       x="258.97946"
       y="78.785019">A</tspan></text>
  <text
     xml:space="preserve"
     style="font-size:15.10085583px;font-style:normal;font-variant:normal;font-weight:normal;font-stretch:normal;text-align:start;line-height:125%;writing-mode:lr-tb;text-anchor:start;fill:#000000;fill-opacity:1;stroke:none;stroke-width:1px;stroke-linecap:butt;stroke-linejoin:miter;stroke-opacity:1;font-family:Arial"
     x="281.91547"
     y="63.893555"
     id="text3613"
     sodipodi:linespacing="125%"
     transform="scale(1.0651828,0.938806)"><tspan
       sodipodi:role="line"
       id="tspan3615"
       x="281.91547"
       y="63.893555">B</tspan></text>
  <path
     d="M 326.30892,63.014391 L 326.30892,213.28768"
     style="fill:none;fill-rule:evenodd;stroke:#000000;stroke-width:0.93818009px;stroke-linecap:butt;stroke-linejoin:miter;stroke-opacity:1"
     id="path3617"
     sodipodi:nodetypes="cc" />
  <path
     style="fill:none;fill-rule:evenodd;stroke:#000000;stroke-width:0.93818009px;stroke-linecap:butt;stroke-linejoin:miter;stroke-opacity:1"
     d="M 207.39062,145.47894 C 207.39062,172.12407 207.39062,198.76921 207.39062,225.41435"
     id="path3619" />
  <path
     style="fill:none;fill-rule:evenodd;stroke:#000000;stroke-width:0.93818009px;stroke-linecap:butt;stroke-linejoin:miter;stroke-opacity:1"
     d="M 180.52706,136.58043 C 153.88193,136.58043 74.720116,136.58043 48.074973,136.58043"
     id="path2352"
     sodipodi:nodetypes="cc" />
  <path
     style="fill:none;fill-rule:evenodd;stroke:#000000;stroke-width:0.93818009px;stroke-linecap:butt;stroke-linejoin:miter;stroke-opacity:1"
     d="M 295.75484,53.480505 C 269.10971,53.480505 73.484434,53.480505 46.839291,53.480505"
     id="path2354"
     sodipodi:nodetypes="cc" />
  <path
     style="fill:none;fill-rule:evenodd;stroke:#000000;stroke-width:0.93818009px;stroke-linecap:butt;stroke-linejoin:miter;stroke-opacity:1"
     d="M 83.525654,220.60713 C 56.880524,220.60713 74.102278,220.60713 47.457135,220.60713"
     id="path2356"
     sodipodi:nodetypes="cc" />
  <path
     style="fill:none;fill-rule:evenodd;stroke:#000000;stroke-width:0.93818009px;stroke-linecap:butt;stroke-linejoin:miter;stroke-opacity:1"
     d="M 201.84266,136.58044 C 175.19753,136.58044 219.29546,136.58044 192.65032,136.58044"
     id="path2358"
     sodipodi:nodetypes="cc" />
  <path
     style="fill:none;fill-rule:evenodd;stroke:#000000;stroke-width:0.93818009px;stroke-linecap:butt;stroke-linejoin:miter;stroke-opacity:1"
     d="M 320.31413,53.480508 C 293.669,53.480508 337.76693,53.480508 311.12179,53.480508"
     id="path2360"
     sodipodi:nodetypes="cc" />
</svg>
