<?xml version="1.0" encoding="utf-8"?>
<!-- Generator: Adobe Illustrator 16.0.4, SVG Export Plug-In . SVG Version: 6.00 Build 0)  -->
<!DOCTYPE svg PUBLIC "-//W3C//DTD SVG 1.1//EN" "http://www.w3.org/Graphics/SVG/1.1/DTD/svg11.dtd">
<svg version="1.1" id="webchords" xmlns="http://www.w3.org/2000/svg" xmlns:xlink="http://www.w3.org/1999/xlink" x="0px" y="0px"
	 width="512px" height="512px" viewBox="0 0 512 512" enable-background="new 0 0 512 512" xml:space="preserve">
<path fill="#BC0000" d="M287.871,409.74l-0.496-257.578c0,0,8.543-3.834,42.659,6.514c10.59,3.212,37.227,21.553,51.314,38.889
	c14.111,17.312,22.817,38.392,26.81,54.314c4.018,15.972-1.711,44.47-11.409,68.651c-9.672,24.181-25.098,52.554-25.098,52.554
	l9.125,1.042c0,0,25.1-42.584,33.657-65.178c8.556-22.595,9.672-44.147,9.672-50.447c0-6.298,1.711-26.289-11.955-54.414
	c-13.689-28.125-70.137-84.845-70.137-84.845s-3.398-4.738-7.987-8.929c-4.539-4.191-19.022-26.389-21.899-33.035
	c-3.299-7.564-19.991-40.302-19.991-40.302l-4.29-8.11L287.871,9h-9.523v377.136v-0.001c-9.771-9.835-27.503-16.244-55.208-16.597
	c-102.232,0.868-174.676,134.746-52.629,133.332c62.354-2.529,118.005-55.397,117.355-93.792L287.871,409.74z"/>
</svg>
