<?xml version="1.0" encoding="utf-8"?>
<!-- Generator: Adobe Illustrator 16.0.4, SVG Export Plug-In . SVG Version: 6.00 Build 0)  -->
<!DOCTYPE svg PUBLIC "-//W3C//DTD SVG 1.1//EN" "http://www.w3.org/Graphics/SVG/1.1/DTD/svg11.dtd">
<svg version="1.1" id="webchords" xmlns="http://www.w3.org/2000/svg" xmlns:xlink="http://www.w3.org/1999/xlink" x="0px" y="0px"
	 width="512px" height="512px" viewBox="0 0 512 512" enable-background="new 0 0 512 512" xml:space="preserve">
<path fill="#BC0000" d="M334.025,110.374C324.169,99.5,319.667,92.667,307,72.667s-19.154-43.74-19.154-43.74l0.024-19.866h-9.523
	v377.136v-0.001c-9.771-9.835-27.503-16.244-55.208-16.597C120.906,370.466,48.462,504.344,170.51,502.93
	c62.354-2.529,118.005-55.398,117.355-93.793l-0.49-256.915c0,0,8.97-5.149,42.659,6.514c18.092,6.264,37.227,21.553,51.314,38.889
	c14.111,17.312,23.278,36.75,26.81,54.314c3.247,16.146-1.711,44.47-11.409,68.651c-9.672,24.181-25.098,52.554-25.098,52.554
	l9.125,1.042c0,0,25.1-42.584,33.657-65.178c8.556-22.595,9.672-44.147,9.672-50.447c0-6.298,0.195-30.6-11.955-54.414
	S343.882,121.248,334.025,110.374z"/>
</svg>
