<svg xmlns="http://www.w3.org/2000/svg"
	 width="16" height="16" viewBox="0 0 16 16">
<path d="M10.133,3.456C9.826,3.112,9.688,2.903,9.291,2.278C8.895,1.655,8.689,0.915,8.689,0.915V0.29H8.395v11.777
	c-0.302-0.309-0.858-0.507-1.724-0.521c-3.185,0.031-5.441,4.205-1.633,4.162c1.948-0.088,3.684-1.739,3.666-2.936L8.687,4.75
	c0,0,0.28-0.156,1.33,0.203c0.562,0.197,1.168,0.674,1.604,1.218c0.442,0.537,0.727,1.146,0.844,1.692
	c0.094,0.5-0.062,1.386-0.362,2.142c-0.3,0.755-0.78,1.64-0.78,1.64l0.28,0.03c0,0,0.786-1.327,1.053-2.028
	c0.269-0.709,0.304-1.375,0.304-1.577c0-0.196,0.013-0.955-0.365-1.701c-0.379-0.746-2.147-2.573-2.461-2.91V3.456L10.133,3.456
	L10.133,3.456z"/>
</svg>
