<?xml version="1.0" standalone="no"?>
<!DOCTYPE svg PUBLIC "-//W3C//DTD SVG 20010904//EN"
 "http://www.w3.org/TR/2001/REC-SVG-20010904/DTD/svg10.dtd">
<svg version="1.0" xmlns="http://www.w3.org/2000/svg"
 width="16.000000pt" height="16.000000pt" viewBox="0 0 16.000000 16.000000"
 preserveAspectRatio="xMidYMid meet">
<metadata>
Created by potrace 1.11, written by Peter Selinger 2001-2013
</metadata>
<g transform="translate(0.000000,16.000000) scale(0.002286,-0.002286)"
fill="#000000" stroke="none">
<path d="M3806 6870 c-1 -3 -2 -1163 -2 -2578 1 -1414 -2 -2572 -6 -2572 -5 0
-8 4 -8 9 0 14 -90 75 -161 109 -65 31 -180 66 -254 78 -22 3 -42 7 -46 9 -8
6 -167 17 -257 19 -318 7 -659 -98 -956 -292 -173 -113 -304 -237 -449 -422
-25 -31 -76 -117 -106 -177 -127 -250 -129 -498 -7 -660 130 -172 379 -264
721 -266 81 -1 209 9 260 19 11 2 31 6 45 9 57 11 72 15 142 34 389 110 776
372 1009 684 70 93 150 244 176 329 8 29 18 61 21 72 4 12 7 838 7 1836 l0
1814 35 7 c123 26 480 -55 674 -153 317 -159 627 -481 804 -833 168 -335 188
-565 86 -983 -60 -244 -136 -437 -322 -811 -65 -129 -118 -237 -120 -241 -2
-6 29 -10 92 -14 27 -1 34 9 140 195 101 179 261 489 317 614 52 119 119 351
135 470 3 28 8 52 9 55 2 3 7 48 11 100 25 321 -20 594 -141 855 -42 91 -67
130 -184 285 -53 71 -193 242 -211 260 -3 3 -35 39 -70 80 -76 88 -63 73 -170
190 -47 51 -92 101 -101 111 -16 18 -193 209 -259 279 -183 194 -274 315 -445
590 -90 145 -110 183 -170 325 -97 226 -107 266 -110 415 -2 74 -3 140 -4 146
-1 12 -120 16 -125 4z"/>
</g>
</svg>
