<svg xmlns="http://www.w3.org/2000/svg" width="16" height="16" viewBox="0 0 16 16"><path d="M10.133 3.456c-.307-.344-.445-.553-.842-1.178-.39-.623-.6-1.363-.6-1.363V.29H8.4v11.777c-.302-.31-.858-.507-1.724-.52-3.184.03-5.44 4.204-1.632 4.16 1.95-.087 3.685-1.738 3.667-2.935L8.69 4.75s.28-.156 1.33.203c.562.197 1.17.674 1.604 1.218.444.54.73 1.15.846 1.698.094.5-.062 1.386-.362 2.142-.3.754-.78 1.64-.78 1.64l.28.03s.786-1.328 1.053-2.03c.27-.71.306-1.375.306-1.577 0-.195.014-.954-.364-1.7-.38-.746-2.147-2.573-2.46-2.91V3.46h-.002z"/></svg>